<svg t="1712502186914" class="icon" viewBox="0 0 1024 1024" version="1.1" xmlns="http://www.w3.org/2000/svg" p-id="3053" width="200" height="200"><path d="M953.088 179.968h-14.1568c-8.704 0-17.0752 1.536-24.832 4.5312v-12.544c0-52.48-42.2912-95.0528-94.3104-95.0528h-2.3552c-52.0192 0-94.336 42.7008-94.336 95.0528v243.4304H300.8v-243.456c0-52.4544-42.2912-95.0272-94.3104-95.0272h-2.3808c-52.0192 0-94.3104 42.7008-94.3104 95.0528v12.544a70.4768 70.4768 0 0 0-24.7296-4.4288H70.912A71.04 71.04 0 0 0 0.1024 251.3152v468.1728a71.04 71.04 0 0 0 70.8096 71.2448h14.1568c8.704 0 17.0752-1.536 24.7296-4.4288v17.7664c0 52.48 42.2912 95.0528 94.3104 95.0528h2.3808c52.0192 0 94.3104-42.7008 94.3104-95.0528v-241.408h422.2208v241.408c0 52.48 42.2912 95.0528 94.3104 95.0528h2.3552c52.0192 0 94.3104-42.7008 94.3104-95.0528v-17.7664c7.7568 2.8672 16.0512 4.5568 24.832 4.5568h14.1824a71.04 71.04 0 0 0 70.8096-71.2704V251.4176c0-39.5776-31.6416-71.4752-70.7328-71.4752zM108.5696 719.36c0 13.1328-10.5728 23.808-23.6032 23.808h-14.1568a23.7056 23.7056 0 0 1-23.6032-23.808V251.2384c0-13.1328 10.5728-23.808 23.6032-23.808h14.1568c13.056 0 23.6032 10.6752 23.6032 23.808V719.36z m97.92 132.1728h-2.3808a47.4368 47.4368 0 0 1-47.2064-47.5648V171.8272c0-26.2144 21.1712-47.5648 47.2064-47.5648h2.3808c26.0608 0 47.2064 21.3504 47.2064 47.5648v632.1408a47.5392 47.5392 0 0 1-47.2064 47.5648z m515.3792-336.5632H300.8v-52.224h421.0688v52.224z m145.1264 288.9984a47.4368 47.4368 0 0 1-47.2064 47.5648h-2.3552a47.4368 47.4368 0 0 1-47.2064-47.5648V171.8272c0-26.2144 21.1456-47.5648 47.2064-47.5648h2.3552c26.0608 0 47.2064 21.3504 47.2064 47.5648v632.1408z m109.696-84.5824c0 13.1072-10.5728 23.7824-23.6032 23.7824h-14.1568a23.7056 23.7056 0 0 1-23.6032-23.808V251.2384c0-13.1328 10.5728-23.808 23.6032-23.808h14.1568c13.056 0 23.6032 10.6752 23.6032 23.808V719.36z" fill="#474A54" p-id="3054"></path><path d="M819.712 899.2256h-2.3808c-52.1216 0-94.4128-42.6752-94.4128-95.1552v-241.3056H300.9024v241.3056c0 52.48-42.3936 95.1552-94.4128 95.1552h-2.3808c-52.096 0-94.3872-42.6752-94.3872-95.1552v-17.5616a70.3232 70.3232 0 0 1-24.6528 4.4544H70.912A71.2192 71.2192 0 0 1 0 719.5904V251.3152a71.2192 71.2192 0 0 1 70.912-71.3728h14.1568c8.4992 0 16.7168 1.4592 24.6272 4.4544v-12.3392c0-52.48 42.3936-95.1552 94.4128-95.1552h2.3808c52.096 0 94.4128 42.7008 94.4128 95.1552v243.328h422.1184v-243.456C723.0208 119.5008 765.4144 76.8 817.408 76.8h2.3552c52.1216 0 94.4128 42.6752 94.4128 95.1552v12.3392c7.7312-3.0208 16.0512-4.5568 24.7296-4.5568h14.1568c18.9952 0 36.736 7.424 50.1504 20.8896A71.424 71.424 0 0 1 1024 251.3152v468.1728a71.2192 71.2192 0 0 1-70.912 71.3728h-14.1568c-8.2944 0-16.6144-1.5616-24.7296-4.5568v17.5616c-0.1024 52.6848-42.3936 95.36-94.5152 95.36zM300.672 562.432h422.4v241.536c0 52.352 42.3168 94.9248 94.2336 94.9248h2.3552c51.9424 0 94.208-42.5728 94.208-94.9248V785.92l0.2048 0.128c8.1152 2.9952 16.4352 4.5568 24.832 4.5568h14.1568a70.9888 70.9888 0 0 0 70.7328-71.1424V251.4176c0-39.3472-31.6416-71.3472-70.6304-71.3472h-14.1568c-8.704 0-16.9984 1.536-24.832 4.5568l-0.1792 0.1024v-12.8c0-52.3264-42.3168-94.8992-94.2336-94.8992h-2.3552c-51.9424 0-94.208 42.5728-94.208 94.9248v243.5328H300.672V171.9552c0-52.352-42.2912-94.9248-94.208-94.9248h-2.3808c-51.9168 0-94.208 42.5728-94.208 94.9248v12.7744l-0.1792-0.1024a69.5296 69.5296 0 0 0-24.7552-4.4544h-14.1568A70.9888 70.9888 0 0 0 0.1024 251.3152v468.1728a70.9888 70.9888 0 0 0 70.7072 71.1424h14.1568c8.6016 0 16.896-1.4592 24.7552-4.4544l0.1792-0.1024v17.9968c0 52.352 42.2912 94.9248 94.208 94.9248h2.3808c51.9168 0 94.208-42.5728 94.208-94.9248v-241.664z m519.0912 289.2288h-2.3552a47.616 47.616 0 0 1-47.3088-47.6928V171.8272c0-26.3424 21.248-47.6672 47.3088-47.6672h2.3552a47.616 47.616 0 0 1 47.3088 47.6672v632.1408a47.616 47.616 0 0 1-47.3088 47.6928z m-2.3552-727.296c-25.9584 0-47.104 21.248-47.104 47.4624v632.1408a47.36 47.36 0 0 0 47.104 47.4624h2.3552c25.9584 0 47.104-21.248 47.104-47.4624V171.8272a47.36 47.36 0 0 0-47.104-47.4624h-2.3552zM206.4896 851.6608h-2.3808a47.616 47.616 0 0 1-47.2832-47.6928V171.8272c0-26.3424 21.248-47.6672 47.2832-47.6672h2.3808a47.616 47.616 0 0 1 47.2832 47.6672v632.1408c-0.0768 26.24-21.3248 47.6928-47.2832 47.6928z m-2.3808-727.296c-25.9584 0-47.104 21.248-47.104 47.4624v632.1408a47.36 47.36 0 0 0 47.104 47.4624h2.3808c25.856 0 47.0016-21.248 47.104-47.4624V171.8272a47.36 47.36 0 0 0-47.104-47.4624h-2.3808zM953.088 743.2704h-14.1568a23.808 23.808 0 0 1-23.7056-23.8848V251.2128a23.808 23.808 0 0 1 23.7056-23.9104h14.1568a23.808 23.808 0 0 1 23.7056 23.9104V719.36a23.808 23.808 0 0 1-23.7056 23.8848z m-14.1568-515.7376a23.6032 23.6032 0 0 0-23.5008 23.68V719.36c0 13.0048 10.5728 23.68 23.5008 23.68h14.1568a23.6032 23.6032 0 0 0 23.5264-23.68V251.2128a23.68 23.68 0 0 0-23.5264-23.68h-14.1568zM84.992 743.2704h-14.1568a23.808 23.808 0 0 1-23.7056-23.8848V251.2128a23.808 23.808 0 0 1 23.7056-23.9104h14.1568a23.808 23.808 0 0 1 23.7056 23.9104V719.36a23.808 23.808 0 0 1-23.7056 23.8848zM70.8096 227.5328a23.6032 23.6032 0 0 0-23.5008 23.68V719.36c0 13.0048 10.5728 23.68 23.5008 23.68h14.1568a23.6032 23.6032 0 0 0 23.5264-23.68V251.2128a23.68 23.68 0 0 0-23.5264-23.68h-14.1568zM721.9712 515.072H300.6976v-52.5568h421.376v52.5568h-0.1024z m-421.0688-0.3328h420.864v-52.0192h-420.864v52.0192z" fill="#2C2C2C" p-id="3055"></path><path d="M206.4896 851.5328h-2.3808a47.4368 47.4368 0 0 1-47.2064-47.5648V171.8272c0-26.2144 21.1712-47.5648 47.2064-47.5648h2.3808c26.0608 0 47.2064 21.3504 47.2064 47.5648v632.1408a47.5392 47.5392 0 0 1-47.2064 47.5648z" fill="#FF6B72" p-id="3056"></path><path d="M866.9952 803.968a47.4368 47.4368 0 0 1-47.2064 47.5648h-2.3552a47.4368 47.4368 0 0 1-47.2064-47.5648V171.8272c0-26.2144 21.1456-47.5648 47.2064-47.5648h2.3552c26.0608 0 47.2064 21.3504 47.2064 47.5648v632.1408z" fill="#F7C38F" p-id="3057"></path></svg>