<svg t="1712507675278" class="icon" viewBox="0 0 1024 1024" version="1.1" xmlns="http://www.w3.org/2000/svg" p-id="1696" width="200" height="200"><path d="M857.758 141.316a6.646 6.646 0 0 0-5.152-2.446H145.716a6.648 6.648 0 0 0-6.514 5.32L0.134 826.126a6.646 6.646 0 0 0 6.516 7.978h706.476a6.656 6.656 0 0 0 6.516-5.316l139.482-681.936a6.66 6.66 0 0 0-1.366-5.536z m-150.06 679.49H14.792L151.146 152.168H844.46l-136.762 668.638z" fill="#4B555F" p-id="1697"></path><path d="M163.81 167.684L33.798 804.094H694.1l130.012-636.41H163.81z m482.904 3.28c14.938 0 27.084 12.102 27.084 27.084s-12.146 27.128-27.084 27.128c-14.982 0-27.128-12.146-27.128-27.128s12.146-27.084 27.128-27.084z m-125.092 0c14.982 0 27.128 12.102 27.128 27.084s-12.146 27.128-27.128 27.128c-14.938 0-27.084-12.146-27.084-27.128s12.146-27.084 27.084-27.084z m-125.048 0c14.982 0 27.128 12.102 27.128 27.084s-12.146 27.128-27.128 27.128c-14.938 0-27.084-12.146-27.084-27.128s12.146-27.084 27.084-27.084z m-125.004 0c14.938 0 27.04 12.102 27.04 27.084s-12.102 27.128-27.04 27.128c-14.982 0-27.128-12.146-27.128-27.128s12.146-27.084 27.128-27.084zM85.174 671.068l81.828-395.446h163.17l-81.874 395.446H85.174z m608.306 0H281.722l81.918-395.446h411.714L693.48 671.068z" fill="#DFDFDE" p-id="1698"></path><path d="M1014.242 824.774l-132.13-576.652-23.014-104.04c-0.678-3.06-3.494-5.388-6.538-5.212a6.652 6.652 0 0 0-6.466 5.306l-21.42 103.844-7.08 35.016a6.6 6.6 0 0 0 0.018 2.714l116.406 541.904a6.65 6.65 0 0 0 6.5 5.254h67.244a6.646 6.646 0 0 0 6.48-8.134z m-68.352-5.164l-114.986-535.296 21.93-106.984 16.306 73.712 130.276 568.568h-53.526z" fill="#4B555F" p-id="1699"></path><path d="M854.008 254.486l-17.696 86.644 99.46 462.956h44.474z" fill="#F58E70" p-id="1700"></path><path d="M338.978 97.892a33.39 33.39 0 0 0-25.266-11.544c-16.024 0-29.83 11.424-32.832 27.166l-15.872 83.31 13.064 2.49 15.872-83.31a20.142 20.142 0 0 1 19.768-16.356 20.128 20.128 0 0 1 19.916 23.004l-3.002 20.75 13.16 1.904 3.002-20.75a33.414 33.414 0 0 0-7.81-26.664z" fill="#4B555F" p-id="1701"></path><path d="M271.54 164.318c-18.608 0-33.748 15.14-33.748 33.748 0 18.608 15.14 33.748 33.748 33.748 18.608 0 33.748-15.14 33.748-33.748 0-18.608-15.14-33.748-33.748-33.748z m0 54.198c-11.276 0-20.45-9.172-20.45-20.45 0-11.276 9.172-20.45 20.45-20.45 11.276 0 20.45 9.172 20.45 20.45 0 11.276-9.174 20.45-20.45 20.45zM464.032 97.892a33.392 33.392 0 0 0-25.266-11.544c-16.024 0-29.83 11.424-32.832 27.166l-15.872 83.31 13.064 2.49 15.872-83.31a20.142 20.142 0 0 1 19.768-16.356 20.124 20.124 0 0 1 19.916 23.004l-3.002 20.75 13.16 1.904 3.002-20.75a33.414 33.414 0 0 0-7.81-26.664z" fill="#4B555F" p-id="1702"></path><path d="M396.594 164.318c-18.61 0-33.75 15.14-33.75 33.748 0 18.608 15.14 33.748 33.75 33.748 18.608 0 33.746-15.14 33.746-33.748 0-18.608-15.138-33.748-33.746-33.748z m0 54.198c-11.276 0-20.452-9.172-20.452-20.45 0-11.276 9.174-20.45 20.452-20.45 11.274 0 20.448 9.172 20.448 20.45 0 11.276-9.172 20.45-20.448 20.45zM589.086 97.892a33.396 33.396 0 0 0-25.268-11.544c-16.026 0-29.832 11.426-32.83 27.166l-15.874 83.31 13.064 2.49 15.874-83.31a20.14 20.14 0 0 1 19.766-16.356 20.124 20.124 0 0 1 19.918 23.004l-3.002 20.75 13.16 1.904 3.002-20.75a33.414 33.414 0 0 0-7.81-26.664z" fill="#4B555F" p-id="1703"></path><path d="M521.646 164.318c-18.608 0-33.748 15.14-33.748 33.748 0 18.608 15.14 33.748 33.748 33.748s33.748-15.14 33.748-33.748c0-18.608-15.14-33.748-33.748-33.748z m0 54.198c-11.276 0-20.45-9.172-20.45-20.45 0-11.276 9.172-20.45 20.45-20.45s20.45 9.172 20.45 20.45c0 11.276-9.172 20.45-20.45 20.45zM714.14 97.892a33.396 33.396 0 0 0-25.268-11.544c-16.026 0-29.832 11.426-32.83 27.166l-15.874 83.31 13.064 2.49 15.874-83.31a20.14 20.14 0 0 1 19.766-16.356 20.124 20.124 0 0 1 19.918 23.004l-3.002 20.75 13.16 1.904 3.002-20.75a33.408 33.408 0 0 0-7.81-26.664z" fill="#4B555F" p-id="1704"></path><path d="M646.7 164.318c-18.608 0-33.748 15.14-33.748 33.748 0 18.608 15.14 33.748 33.748 33.748s33.748-15.14 33.748-33.748c0-18.608-15.14-33.748-33.748-33.748z m0 54.198c-11.276 0-20.45-9.172-20.45-20.45 0-11.276 9.172-20.45 20.45-20.45s20.45 9.172 20.45 20.45c0 11.276-9.172 20.45-20.45 20.45zM358.206 268.958l-84.624 408.77h425.326l84.624-408.77H358.206zM688.08 664.428H289.914l79.118-382.174H767.2l-79.12 382.174z" fill="#4B555F" p-id="1705"></path><path d="M396.974 308.716l-13.102 63.288h63.568l13.104-63.288h-63.57z m39.638 49.99h-36.408l7.594-36.692h36.41l-7.596 36.692zM486.228 308.716l-13.104 63.288h63.57l13.102-63.288h-63.568z m39.64 49.99h-36.41l7.598-36.692h36.408l-7.596 36.692zM575.482 308.716l-13.104 63.288h63.57l13.102-63.288h-63.568z m39.64 49.99h-36.41l7.598-36.692h36.408l-7.596 36.692zM664.738 308.716l-13.104 63.288h63.57l13.102-63.288h-63.568z m39.638 49.99h-36.41l7.598-36.692h36.408l-7.596 36.692zM378.62 397.37l-13.102 63.288h63.57l13.102-63.288H378.62z m39.64 49.99h-36.41l7.594-36.692h36.41l-7.594 36.692zM467.874 397.37l-13.102 63.288h63.566l13.104-63.288h-63.568z m39.638 49.99h-36.408l7.596-36.692h36.41l-7.598 36.692zM557.128 397.37l-13.102 63.288h63.568l13.102-63.288h-63.568z m39.64 49.99H560.36l7.594-36.692h36.408l-7.594 36.692zM646.382 397.37l-13.104 63.288h63.57l13.102-63.288h-63.568z m39.64 49.99h-36.41l7.598-36.692h36.408l-7.596 36.692zM360.266 486.026l-13.104 63.288h63.57l13.102-63.288h-63.568z m39.64 49.99h-36.41l7.598-36.692h36.408l-7.596 36.692zM449.52 486.026l-13.102 63.288h63.57l13.102-63.288H449.52z m39.64 49.99h-36.41l7.594-36.692h36.41l-7.594 36.692zM538.774 486.026l-13.102 63.288h63.568l13.104-63.288h-63.57z m39.64 49.99h-36.408l7.594-36.692h36.41l-7.596 36.692zM628.028 486.026l-13.102 63.288h63.566l13.104-63.288h-63.568z m39.64 49.99H631.26l7.596-36.692h36.41l-7.598 36.692zM341.912 574.68l-13.102 63.288h63.568l13.104-63.288h-63.57z m39.64 49.99h-36.408l7.594-36.692h36.41l-7.596 36.692zM431.166 574.68l-13.104 63.288h63.57l13.102-63.288h-63.568z m39.64 49.99h-36.41l7.598-36.692h36.408l-7.596 36.692zM520.422 574.68l-13.104 63.288h63.57l13.102-63.288h-63.568z m39.64 49.99h-36.41l7.598-36.692h36.408l-7.596 36.692zM609.674 574.68l-13.102 63.288h63.57l13.102-63.288h-63.57z m39.642 49.99h-36.41l7.594-36.692h36.41l-7.594 36.692zM161.604 268.958L76.98 677.728h176.728l84.628-408.77H161.604z m81.278 395.47H93.312l79.118-382.174H322l-79.118 382.174z" fill="#4B555F" p-id="1706"></path><path d="M186.014 298.94L113.806 647.746h115.492l72.21-348.806z" fill="#FFD351" p-id="1707"></path><path d="M85.146 722.136h586.47v13.298H85.146z" fill="#4B555F" p-id="1708"></path><path d="M823.95 251.942l-116.254 568.864H27.148v116.846h920.284v-110.244l-123.482-575.466z m110.186 672.414H40.446v-90.25h678.108l105.722-517.338 109.86 511.348v96.24z" fill="#4B555F" p-id="1709"></path><path d="M825.666 393.268l-89.808 439.506v74.914h182.54v-80.276zM57.118 850.77h632.234v56.916H57.118z" fill="#F58E70" p-id="1710"></path><path d="M706.476 827.456h13.298v103.564h-13.298z" fill="#4B555F" p-id="1711"></path><path d="M925.898 826.124v13.298h13.298v-13.298h-13.298z m-186.176 13.298h13.298v-13.298h-13.298v13.298z m26.596 0h13.298v-13.298h-13.298v13.298z m-53.194 0h13.298v-13.298h-13.298v13.298z m79.79 0h13.298v-13.298h-13.298v13.298z m79.79 0h13.298v-13.298h-13.298v13.298z m-53.192 0h13.298v-13.298h-13.298v13.298z m79.788 0h13.298v-13.298h-13.298v13.298z m-53.192 0h13.298v-13.298h-13.298v13.298zM5.186 924.356h966.942v13.298H5.186zM991.524 924.356H1024v13.298h-32.476z" fill="#4B555F" p-id="1712"></path></svg>