<svg t="1712502659717" class="icon" viewBox="0 0 1024 1024" version="1.1" xmlns="http://www.w3.org/2000/svg" p-id="4453" width="200" height="200"><path d="M746.31 419.33c-3.76 10.31-7.1 20.76-9.78 31.14-0.07 0.26-0.13 0.53-0.2 0.79-0.01 0.01-0.01 0.01-0.01 0.02v0.02c-0.06 0.22-0.11 0.44-0.17 0.67-0.03 0.09-0.05 0.18-0.07 0.27-2.5 10.22-4.51 25.01-6.12 43.02l-6.24-37.13 0.33-5.32 22.26-33.48zM868.7 588.04c-0.05 0-0.09 0.01-0.14 0.01-7.94 0.65-13.97 7.3-13.97 15.16 0 0.36 0.01 0.72 0.04 1.09 2.96 41.42 5.12 76 5.33 90.86 0.01 0.65 0.02 3.22 0.02 6.09l-90.2-60.92-11.97-71.17a15.23 15.23 0 0 0-1.42-4.32c1.61-47.37 4.5-86.8 9.42-106.05 12.31-48.29 41.19-100.11 58.38-128.28 5 11.13 10.07 25.67 11.62 41.28 1.68 16.79 22.41 75.39 26.46 121.36 0.66 8.34 4.29 70.89 4.65 70.85 0.61 8.14 1.21 16.17 1.78 24.04z" fill="#FFFBC4" p-id="4454"></path><path d="M863.22 866.61h-55.4l-38.02-226.1 90.19 61.98c0 0.92 0.01 1.84 0 2.72-0.01 0.29-0.01 0.58 0 0.88 0 0.09 0.01 0.18 0.01 0.28v0.18c0 2.04 0 3.63-0.01 3.99-0.02 0.97 0.04 1.89 0.17 2.76 0.74 33.11 2.71 142.85 3.06 153.31z" fill="#FF524E" p-id="4455"></path><path d="M685.44 214.04c2.22 8.35 3.76 21.8-6.38 28.57l-107.01 37.42c33.34-37.93 57.23-84.91 69.27-111.56 20.34 19.77 39.67 39.46 44.12 45.57z" fill="#FFD630" p-id="4456"></path><path d="M725.02 799.46c-114.54-7.72-117.98-123.39-117.98-123.39H416.9s-3.44 115.67-117.98 123.39c-0.43 28.89-0.94 52.54-1.3 67.16h428.7c-0.36-14.63-0.87-38.28-1.3-67.16z" fill="#FF524E" p-id="4457"></path><path d="M709.25 254.53c-3.43 5.22-7.9 9.73-13.37 13.38-12.04 8.03-49.48 21.09-87.85 32.86V492.5c0 19.53-30.42 19.56-30.42 0V309.79c-19.55 5.61-37.54 10.38-50.42 13.41l-15.22 0.01-15.22-0.01c-12.88-3.03-30.87-7.8-50.42-13.41V492.5c0 19.56-30.42 19.53-30.42 0V300.77c-38.37-11.77-75.81-24.83-87.85-32.86-5.47-3.65-9.94-8.16-13.37-13.38l-94.18 51.57c13.81 21.82 39.97 66.09 57.17 113.2l16.35 76.04c5.15 57.88 6.1 148.91 5.69 228.19l-0.25 32.88c-0.15 15.22-0.34 29.69-0.55 43.04 114.54-7.72 117.98-123.39 117.98-123.39h190.14s3.44 115.67 117.98 123.39c-0.21-13.35-0.4-27.82-0.55-43.04l-0.25-32.88c-0.41-79.28 0.54-170.31 5.69-228.19l16.35-76.04c17.2-47.11 43.36-91.38 57.17-113.2l-94.18-51.57z" fill="#FFFBC4" p-id="4458"></path><path d="M560.26 245.2l19.7-26.82c14.56-22.94 25.78-45.44 32.91-60.99H411.13c7.14 15.56 18.38 38.1 32.96 61.07 8.7 13.7 18.59 27.56 29.52 40.18 11.68 13.5 24.54 25.59 38.39 34.56 13.86-8.98 26.73-21.08 38.41-34.59 10.94-12.63 20.85-26.51 29.55-40.23l-19.7 26.82z" fill="#83499B" p-id="4459"></path><path d="M451.95 280.02L344.94 242.6c-10.15-6.76-8.61-20.22-6.38-28.56 4.45-6.12 23.78-25.8 44.11-45.58 12.05 26.66 35.94 73.64 69.28 111.56z" fill="#FFD630" p-id="4460"></path><path d="M267.61 564.84c-0.67 1.33-1.15 2.78-1.42 4.32l-11.97 71.18-90.14 60.87c-0.01-0.7-0.03-1.38-0.04-2.05-0.66-34.08 19.92-285.18 24.15-327.37 1.54-15.5 6.63-30.07 11.64-41.24 17.19 28.18 46.06 79.98 58.37 128.24 4.91 19.26 7.8 58.68 9.41 106.05z" fill="#FFFBC4" p-id="4461"></path><path d="M254.19 640.52l-38.01 226.1h-55.4c1.19-35.99 3.87-123.63 3.32-164.18l90.09-61.92z" fill="#FF524E" p-id="4462"></path><path d="M864.32 521.62c-9.38 0.78-17 8.9-17 18.44 0 10.08 8.45 18.52 18.51 18.52 0.45 0 0.89-0.01 1.33-0.06 9.19-0.67 16.74-8.35 17.15-17.65 0.46-10.34-8.09-19.32-18.47-19.32-0.52 0-1.02 0.03-1.52 0.07z" fill="#3D125E" p-id="4463"></path><path d="M890.34 693.34l-0.03-1.25c-0.43-17.12-2.53-50.65-5.34-89.96-0.6-8.39-7.9-14.7-16.27-14.09-0.05 0-0.09 0.01-0.14 0.01-7.94 0.65-13.97 7.3-13.97 15.16 0 0.36 0.01 0.72 0.04 1.09 2.37 33.17 4.23 61.94 4.98 79.72l-93.26-64.09-8.54-50.77a15.23 15.23 0 0 0-1.42-4.32c1.61-47.37 4.5-86.8 9.42-106.05 12.31-48.29 41.19-100.11 58.38-128.28 5 11.13 10.07 25.67 11.62 41.28 1.68 16.79 5.57 51.31 10.07 107.42 0.67 8.37 7.99 14.61 16.36 13.94h0.03c7.95-0.65 13.96-7.3 13.96-15.13 0-0.41-0.02-0.82-0.05-1.23-4.65-58.03-8.66-93.65-10.1-108.02-2.1-21-8.12-41.19-17.71-59.91-2.98-5.82-5.65-10.53-11.48-16.18-5.89-5.7-10.06-8.48-15.74-11.59-10.89-5.96-21.78-11.92-32.66-17.89-12.75-6.98-25.5-13.96-38.24-20.94-9.26-5.07-18.52-10.14-27.77-15.21-1.67-0.91-3.33-1.82-5-2.74-0.11-6.5-1.18-13.34-3.26-20.4-1.2-4.06-3.43-11.61-67.78-72.77-2.78-2.63-6.66-4.18-10.49-4.18H388.06c-3.84 0-7.69 1.53-10.47 4.18-64.36 61.16-66.59 68.71-67.79 72.77-2.08 7.07-3.15 13.9-3.26 20.4-7.91 4.33-15.83 8.67-23.74 13-16.07 8.8-32.13 17.6-48.2 26.39-8.58 4.7-17.54 9.39-26.19 14.21-6.5 3.62-12.41 7.62-18.95 14.27-5.45 5.54-10.15 11.04-13.58 17.87-6.13 12.2-11.09 25.05-14.38 38.31-1.67 6.71-2.9 13.53-3.59 20.4-3.54 35.45-25.02 293.58-24.28 330.98 0.93 47.48-3.74 180.21-3.78 181.54-0.3 8.49 6.7 15.74 15.2 15.74h84c7.42 0 13.76-5.36 15-12.68l25.15-149.58-0.09 11.94-2.3 134.85c-0.14 8.38 6.83 15.47 15.21 15.47h459.96c8.37 0 15.35-7.09 15.21-15.47l-2.29-134.93c-0.04-3.92-0.07-7.87-0.1-11.87l25.15 149.58c1.24 7.33 7.58 12.69 15 12.69h84c8.5 0 15.5-7.25 15.2-15.75-0.01-0.25-2.81-151.27-3.81-187.93zM641.32 168.47c20.34 19.78 39.67 39.46 44.12 45.57 2.22 8.35 3.76 21.8-6.38 28.57l-107.01 37.42c33.34-37.94 57.23-84.92 69.27-111.56z m-28.45-11.09c-7.13 15.55-18.35 38.05-32.91 60.99-8.7 13.72-18.61 27.6-29.55 40.23-11.68 13.51-24.55 25.61-38.41 34.59-13.85-8.97-26.71-21.06-38.39-34.56-10.93-12.62-20.82-26.48-29.52-40.18-14.58-22.97-25.82-45.51-32.96-61.07h201.74z m-274.31 56.66c4.45-6.12 23.78-25.8 44.11-45.58 12.05 26.65 35.94 73.64 69.28 111.55L344.94 242.6c-10.15-6.76-8.61-20.22-6.38-28.56zM216.18 866.61h-55.4c1.03-31.27 3.19-101.53 3.38-146.02l86.57-59.5-34.55 205.52z m50.01-297.45l-8.54 50.77-93.26 64.1c2.73-64.57 19.97-274.04 23.8-312.24 1.54-15.5 6.63-30.07 11.64-41.24 17.19 28.18 46.06 79.98 58.37 128.24 4.91 19.25 7.8 58.68 9.41 106.05a15.66 15.66 0 0 0-1.42 4.32z m261.05 297.45H297.62c0.29-11.81 0.68-29.52 1.04-51.12 0.44-0.03 0.89-0.05 1.33-0.08 66.67-4.49 99.41-42.35 115.13-73.31 9.63-18.96 14.05-37.53 16.07-50.05h161.6c2.08 12.48 6.58 31 16.26 49.93 15.8 30.88 48.56 68.67 114.85 73.38l1.41 0.09c0.37 21.62 0.77 39.34 1.05 51.15H527.24z m219.07-447.29c-3.76 10.31-7.1 20.76-9.78 31.14-0.07 0.26-0.13 0.53-0.2 0.79-0.01 0.01-0.01 0.01-0.01 0.02v0.02c-0.06 0.22-0.11 0.44-0.17 0.67-0.03 0.09-0.05 0.18-0.07 0.27-2.5 10.22-4.51 25.01-6.12 43.02-5.15 57.87-6.1 148.95-5.69 228.27l0.25 32.89c0.09 9.28 0.2 18.28 0.31 26.93-40.2-3.22-69.41-21.71-86.8-54.99-13.78-26.36-15-52.63-15.01-52.85-0.3-8.61-7.37-15.44-15.99-15.44H416.9c-8.62 0-15.68 6.87-15.99 15.48-0.01 0.26-1.1 26.62-14.79 53.01-17.29 33.32-46.54 51.76-86.96 54.84 0.12-8.66 0.22-17.67 0.32-26.97l0.25-32.88c0.41-79.28-0.54-170.31-5.69-228.19-1.65-18.62-3.74-33.81-6.36-44.07-2.72-10.65-6.13-21.38-9.99-31.97-17.2-47.11-43.36-91.38-57.17-113.2l94.18-51.57c3.43 5.22 7.9 9.73 13.37 13.38 12.04 8.03 49.48 21.09 87.85 32.86V492.5c0 19.53 30.42 19.56 30.42 0V309.79c19.55 5.61 37.54 10.38 50.42 13.41l6.05 1.14a50.14 50.14 0 0 0 18.4 0.02l6.04-1.12c13.17-3.05 31.04-7.79 50.43-13.36V492.5c0 19.53 30.42 19.56 30.42 0V300.82c0.51-0.16 1.02-0.31 1.53-0.47 32.01-9.89 72.98-23.54 86.31-32.44 5.48-3.65 9.95-8.16 13.37-13.38l94.19 51.57c-13.82 21.84-39.99 66.12-57.19 113.22z m61.51 447.29l-34.56-205.53 86.94 59.75c0.04 0.03 0.08 0.05 0.12 0.08 0.83 39.72 2.57 135.94 2.9 145.71h-55.4z" fill="#3D125E" p-id="4464"></path></svg>