<svg t="1712502409975" class="icon" viewBox="0 0 1024 1024" version="1.1" xmlns="http://www.w3.org/2000/svg" p-id="3509" width="200" height="200"><path d="M895.324835 662.741802c-17.115429 1.620396-33.308132 3.162022-46.507604 12.659341-19.591033 14.08844-32.655473 31.586462-45.269802 48.533099-22.685538 30.39367-46.125011 61.822593-104.628044 64.770813-2.554374 0.135033-5.074989 0.202549-7.595605 0.202549-38.13556 0-70.284659-14.504791-101.443516-28.559472-17.194198-7.74189-34.984791-15.753846-53.428044-21.110154-42.287824-12.276747-65.851077 0.787692-98.42778 18.927121-8.327033 4.647385-17.036659 9.46356-26.511473 14.155956-52.752879 25.858813-106.653538 7.685626-140.670593-47.565363-5.716396-9.328527-10.982681-19.973626-16.552792-31.271384-15.450022-31.271385-32.936791-66.728791-63.386725-74.785759-14.673582-3.949714-30.584967-1.609143-47.419077 0.90022-28.019341 4.084747-59.71833 8.777143-85.678417-19.759824-7.426813-8.158242-13.233231-17.745582-18.319473-27.805538 30.96756 187.031912 230.4 331.821011 471.175033 331.821011 211.315341 0 390.830418-111.604747 452.495473-265.396044a93.138989 93.138989 0 0 1-32.261627 18.263208c-11.747868 3.780923-23.87833 4.906198-35.569934 6.02022z" fill="#FAE58F" p-id="3510"></path><path d="M510.660923 362.304703c-71.961319 0-132.748659 29.504703-132.748659 64.421978 0 10.982681 6.053978 21.436484 16.552791 30.607473 15.202462-52.494066 217.155516-52.494066 232.32422 0 10.498813-9.170989 16.564044-19.624791 16.564044-30.607473 0-34.917275-60.764835-64.421978-132.692396-64.421978z" fill="#B07072" p-id="3511"></path><path d="M510.660923 138.678857c-236.735297 0-433.534593 139.939165-469.532132 322.368703-5.592615 36.909011 1.035253 93.420308 30.72 125.974506 19.185934 21.076396 42.23156 17.689319 68.866813 13.76211 18.015648-2.644396 36.571429-5.390066 55.093451-0.461363 38.78822 10.251253 58.322989 49.815912 75.539692 84.721934 5.36756 10.903912 10.431297 21.155165 15.708835 29.741011 28.840791 46.845187 72.220132 62.025143 116.060836 40.431121a523.365275 523.365275 0 0 0 25.678769-13.672088c33.814505-18.837099 63.116659-35.052308 112.977582-20.570022 19.714813 5.738901 38.13556 14.00967 55.926154 22.055385 32.576703 14.696088 63.600527 28.581978 100.261978 26.714022 49.613363-2.49811 67.584-26.624 90.337055-57.175209 13.480791-18.094418 27.434198-36.785231 49.422066-52.584088 17.385495-12.513055 36.897758-14.369758 55.824879-16.158945 11.185231-1.057758 21.774066-2.048 31.541451-5.176264 18.803341-6.065231 34.827253-19.951121 48.915692-42.445362a9.035956 9.035956 0 0 1 3.567121-3.184528c5.491341-23.270681 8.507077-47.22778 8.507077-71.758769-0.011253-210.955253-213.295824-382.582154-475.417319-382.582154z m93.105231 354.236484c-19.084659 9.609846-47.407824 15.247473-77.047561 16.777846-0.258813 0-0.528879 0.022505-0.82145 0.045011-5.041231 0.236308-10.138725 0.393846-15.23622 0.393846a329.446681 329.446681 0 0 1-16.102681-0.438857c-29.617231-1.530374-57.906637-7.145495-77.00255-16.755341-35.84-15.11244-58.649319-38.889495-58.649318-66.211165 0-46.77767 66.650022-83.427868 151.754549-83.427868 85.048264 0 151.687033 36.638945 151.687033 83.427868 0 27.299165-22.798066 51.07622-58.581802 66.18866z" fill="#F17897" p-id="3512"></path><path d="M512.731429 939.041758C231.165187 939.041758 2.093011 751.638505 2.093011 521.272264c0-230.354989 229.060923-417.735736 510.638418-417.735737 281.532484 0 510.570901 187.380747 510.570901 417.735737 0 230.366242-229.038418 417.769495-510.570901 417.769494z m0-784.18145c-253.265582 0-459.32589 164.380132-459.325891 366.423208 0 202.043077 206.060308 366.445714 459.325891 366.445715 253.243077 0 459.258374-164.402637 459.258373-366.445715S765.974505 154.860308 512.731429 154.860308z" fill="#434B56" p-id="3513"></path><path d="M512.731429 526.302242c-95.738374 0-167.913495-42.805451-167.913495-99.564308 0-56.77011 72.175121-99.57556 167.913495-99.57556 95.693363 0 167.857231 42.805451 167.85723 99.57556s-72.163868 99.564308-167.85723 99.564308z m0-147.816088c-71.184879 0-116.600967 28.581978-116.600967 48.263033 0 19.669802 45.416088 48.218022 116.600967 48.218022 71.128615 0 116.533451-28.54822 116.53345-48.218022 0.011253-19.692308-45.393582-48.263033-116.53345-48.263033z" fill="#434B56" p-id="3514"></path><path d="M408.227165 493.781802a28.334418 28.334418 0 0 1-22.899341-11.320264c-3.927209-5.255033-5.918945-11.556571-5.918945-18.747076 0-46.226286 71.826286-62.644044 133.333802-62.644044h0.225055c61.44 0.045011 133.063736 16.462769 133.063737 62.644044 0 17.126681-12.400527 30.056088-28.818286 30.056087-11.095209 0-20.142418-5.626374-33.803253-14.099692-17.475516-10.870154-43.885714-27.265407-70.667253-27.265406-26.804044 0-53.236747 16.417758-70.746022 27.265406-13.660835 8.484571-22.674286 14.08844-33.769494 14.110945z" fill="#434B56" p-id="3515"></path><path d="M693.225495 805.077802c-41.421363 0-75.190857-15.23622-107.913847-29.988571-17.475516-7.86567-33.938286-15.292484-51.256263-20.344967-35.873758-10.408791-54.767121 0.112527-86.106022 17.565538-8.529582 4.726154-17.329231 9.621099-27.254154 14.482286-59.932132 29.470945-123.352615 8.428308-161.521934-53.563077-6.144-10.003692-11.556571-20.952615-17.28422-32.587956-14.606066-29.560967-29.673495-60.134681-53.034198-66.31244-11.556571-3.049495-25.825055-0.978989-40.948747 1.249055-28.773275 4.242286-68.180396 10.082462-99.980659-24.868571C2.093011 560.431824 0.12378 475.642374 13.210725 434.176a25.656264 25.656264 0 1 1 48.949451 15.461275c-9.846154 31.17011-5.603868 94.365538 23.709538 126.503384 12.254242 13.458286 24.722286 13.053187 54.542066 8.64211 18.690813-2.756923 39.868484-5.89644 61.631297-0.067516 45.854945 12.119209 68.022857 57.062681 85.858461 93.195252 5.187516 10.521319 10.093714 20.468747 14.98866 28.390682 11.51156 18.724571 43.840703 59.605802 95.198242 34.422154 8.88967-4.388571 17.059165-8.957187 24.879824-13.289495 33.927033-18.893363 68.945582-38.428132 125.400615-21.987868 20.80633 6.031473 39.710945 14.58356 58.007912 22.820571 30.753758 13.874637 59.71833 26.804044 92.835165 25.307429 41.995253-2.104264 56.387516-21.413978 78.195341-50.671121 13.537055-18.195692 28.91956-38.810725 52.955428-56.072439 20.918857-15.044923 43.660659-17.205451 63.713055-19.095913 10.296264-0.967736 20.007385-1.890462 28.120616-4.489846 15.03367-4.838681 28.154374-16.485275 40.161055-35.648703a25.667516 25.667516 0 0 1 43.50312 27.242901c-18.67956 29.842286-40.914989 48.555604-67.944087 57.265231-13.43578 4.321055-27.017846 5.592615-39.002022 6.740396-15.540044 1.462857-28.953319 2.74567-38.596924 9.688615-17.588044 12.625582-29.335912 28.379429-41.758945 45.056-23.743297 31.845275-50.659868 67.955341-116.781011 71.274901-2.880703 0.146286-5.738901 0.213802-8.552087 0.213802zM156.750769 399.123692a25.656264 25.656264 0 0 1-17.475516-44.448351l85.059516-79.140572a25.656264 25.656264 0 1 1 34.962286 37.572923l-85.059517 79.129319c-4.951209 4.613626-11.230242 6.886681-17.486769 6.886681z" fill="#434B56" p-id="3516"></path><path d="M298.861714 632.078066a25.611253 25.611253 0 0 1-21.368967-11.432791l-56.781362-85.11578a25.656264 25.656264 0 1 1 42.692923-28.491957l56.77011 85.127033a25.656264 25.656264 0 0 1-21.312704 39.913495zM259.915956 443.785846a25.667516 25.667516 0 0 1-8.450813-49.928439l59.335736-20.637539a25.656264 25.656264 0 0 1 16.867868 48.488088l-59.335736 20.637539a25.363692 25.363692 0 0 1-8.417055 1.440351zM595.259077 668.233143a25.577495 25.577495 0 0 1-19.804835-9.328528l-48.994462-59.369494a25.656264 25.656264 0 1 1 39.587165-32.666725l48.994462 59.380747a25.633758 25.633758 0 0 1-19.78233 41.984zM765.535648 559.857934a25.656264 25.656264 0 0 1-12.625582-48.026725l87.703912-49.410813a25.656264 25.656264 0 0 1 34.951033 9.767384 25.633758 25.633758 0 0 1-9.767385 34.93978l-87.692659 49.410814a25.318681 25.318681 0 0 1-12.569319 3.31956zM809.342593 399.123692a25.678769 25.678769 0 0 1-24.981098-19.782329l-28.356924-120.426901a25.656264 25.656264 0 0 1 49.962198-11.759121l28.356923 120.426901a25.667516 25.667516 0 0 1-24.981099 31.54145zM621.826813 289.004308a25.645011 25.645011 0 0 1-14.729846-46.687649l66.346198-46.45134a25.656264 25.656264 0 0 1 29.448439 42.062769l-66.368703 46.428835c-4.501099 3.139516-9.621099 4.647385-14.696088 4.647385zM461.092571 299.323077a25.656264 25.656264 0 0 1-15.495033-5.210022l-74.830769-56.781363a25.633758 25.633758 0 0 1-4.928703-35.930022 25.633758 25.633758 0 0 1 35.952527-4.951208l74.83077 56.770109a25.656264 25.656264 0 0 1-15.528792 46.102506zM373.399912 668.233143a25.611253 25.611253 0 0 1-18.747077-8.124484 25.701275 25.701275 0 0 1 1.215297-36.301362l38.720703-36.155077a25.690022 25.690022 0 0 1 36.267605 1.204044c9.677363 10.375033 9.125978 26.612747-1.215297 36.301362L390.92044 661.323956c-4.951209 4.613626-11.241495 6.909187-17.520528 6.909187z" fill="#434B56" p-id="3517"></path></svg>