<svg t="1712502356242" class="icon" viewBox="0 0 1024 1024" version="1.1" xmlns="http://www.w3.org/2000/svg" p-id="3359" width="200" height="200"><path d="M250.133333 106.666667m28.693334 0l465.856 0q28.693333 0 28.693333 28.693333l0 28.672q0 28.693333-28.693333 28.693333l-465.856 0q-28.693333 0-28.693334-28.693333l0-28.672q0-28.693333 28.693334-28.693333Z" fill="#FFFFFF" p-id="3360"></path><path d="M220.693333 164.053333h581.696a28.693333 28.693333 0 0 1 28.672 29.12L830.592 221.866667a28.693333 28.693333 0 0 1-28.672 28.224H220.693333A28.693333 28.693333 0 0 1 192 221.397333V192.725333c0-15.850667 12.842667-28.693333 28.693333-28.693333z" fill="#F2F2F2" p-id="3361"></path><path d="M278.826667 106.666667h465.877333c15.850667 0 28.693333 12.842667 28.693333 28.693333v28.672c0 15.850667-12.842667 28.693333-28.693333 28.693333H278.826667a28.693333 28.693333 0 0 1-28.693334-28.693333V135.36C250.133333 119.509333 262.976 106.666667 278.826667 106.666667z m0 28.693333v28.672h465.877333V135.36H278.826667z" fill="#666666" p-id="3362"></path><path d="M220.693333 164.053333h581.696a28.693333 28.693333 0 0 1 28.672 29.12L830.592 221.866667a28.693333 28.693333 0 0 1-28.672 28.224H220.693333A28.693333 28.693333 0 0 1 192 221.397333V192.725333c0-15.850667 12.842667-28.693333 28.693333-28.693333z m0 57.344H801.92l0.469333-28.672H220.693333v28.672z" fill="#666666" p-id="3363"></path><path d="M281.386667 221.397333h460.757333a28.693333 28.693333 0 0 1 28.586667 31.146667l-56.64 659.712a28.693333 28.693333 0 0 1-28.586667 26.24H338.026667c-14.890667 0-27.306667-11.413333-28.586667-26.24L252.821333 252.544a28.693333 28.693333 0 0 1 28.586667-31.146667z" fill="#FFF7D2" p-id="3364"></path><path d="M281.386667 221.397333h460.757333a28.693333 28.693333 0 0 1 28.586667 31.146667l-56.64 659.712a28.693333 28.693333 0 0 1-28.586667 26.24H338.026667c-14.890667 0-27.306667-11.413333-28.586667-26.24L252.821333 252.544a28.693333 28.693333 0 0 1 28.586667-31.146667z m0 28.693334l56.64 659.712h347.477333l56.64-659.712H281.386667z" fill="#666666" p-id="3365"></path><path d="M252.672 364.8h518.186667a28.693333 28.693333 0 0 1 28.544 31.466667L774.4 654.421333a28.693333 28.693333 0 0 1-28.544 25.92H277.696a28.693333 28.693333 0 0 1-28.544-25.92l-25.024-258.133333A28.693333 28.693333 0 0 1 252.672 364.8z" fill="#FABF01" p-id="3366"></path><path d="M252.672 364.8h518.186667a28.693333 28.693333 0 0 1 28.544 31.466667L774.4 654.421333a28.693333 28.693333 0 0 1-28.544 25.92H277.696a28.693333 28.693333 0 0 1-28.544-25.92l-25.024-258.133333A28.693333 28.693333 0 0 1 252.672 364.8z m25.024 286.848h468.138667l25.024-258.133333H252.672l25.024 258.133333z" fill="#666666" p-id="3367"></path><path d="M649.856 866.773333h-72.682667a14.336 14.336 0 1 0 0 28.693334h72.682667a14.336 14.336 0 0 0 0-28.693334zM308.266667 450.858667h174.421333a14.336 14.336 0 0 0 0-28.672H308.288a14.336 14.336 0 1 0 0 28.672z" fill="#666666" p-id="3368"></path></svg>