<svg t="1712503029037" class="icon" viewBox="0 0 1024 1024" version="1.1" xmlns="http://www.w3.org/2000/svg" p-id="5835" width="200" height="200"><path d="M746.3936 889.5488H291.84c-78.08 0-141.3632-63.2832-141.3632-141.3632V293.632c0-78.08 63.2832-141.3632 141.3632-141.3632h454.5536c78.08 0 141.3632 63.2832 141.3632 141.3632v454.5536c0 78.08-63.3344 141.3632-141.3632 141.3632z" fill="#7BD3FF" p-id="5836"></path><path d="M746.3936 152.2688h-101.9904c78.08 0 141.3632 63.2832 141.3632 141.3632v454.5536c0 78.08-63.2832 141.3632-141.3632 141.3632h101.9904c78.08 0 141.3632-63.2832 141.3632-141.3632V293.632c0-78.0288-63.3344-141.3632-141.3632-141.3632z" fill="#5BC7FC" p-id="5837"></path><path d="M388.352 694.1184h-49.7664c-7.936 0-14.3872-6.4512-14.3872-14.3872v-122.368c0-7.936 6.4512-14.3872 14.3872-14.3872h49.7664c7.936 0 14.3872 6.4512 14.3872 14.3872v122.368c0 7.9872-6.4512 14.3872-14.3872 14.3872z" fill="#FFE471" p-id="5838"></path><path d="M366.3872 542.976h36.352v151.1424h-36.352z" fill="#F5D126" p-id="5839"></path><path d="M542.8224 694.1184H493.056c-7.936 0-14.3872-6.4512-14.3872-14.3872V490.9056c0-7.936 6.4512-14.3872 14.3872-14.3872h49.7664c7.936 0 14.3872 6.4512 14.3872 14.3872v188.8768c0 7.936-6.4512 14.336-14.3872 14.336z" fill="#FFE471" p-id="5840"></path><path d="M519.1168 476.5184h38.0928v217.6h-38.0928z" fill="#F5D126" p-id="5841"></path><path d="M693.7088 694.1184h-49.7664c-7.936 0-14.3872-6.4512-14.3872-14.3872V425.728c0-7.936 6.4512-14.3872 14.3872-14.3872h49.7664c7.936 0 14.3872 6.4512 14.3872 14.3872v254.0032c0 7.9872-6.4512 14.3872-14.3872 14.3872z" fill="#FF6950" p-id="5842"></path><path d="M670.3104 411.3408h37.7856v282.7776h-37.7856z" fill="#F4403B" p-id="5843"></path><path d="M746.3936 136.9088H291.84c-86.4256 0-156.7232 70.2976-156.7232 156.7232v454.5536c0 86.4256 70.2976 156.7232 156.7232 156.7232h454.5536c86.4256 0 156.7232-70.2976 156.7232-156.7232V293.632c0-86.3744-70.3488-156.7232-156.7232-156.7232z m126.0032 611.2768c0 69.4784-56.5248 126.0032-126.0032 126.0032H291.84c-69.4784 0-126.0032-56.5248-126.0032-126.0032V293.632c0-69.4784 56.5248-126.0032 126.0032-126.0032h454.5536c69.4784 0 126.0032 56.5248 126.0032 126.0032v454.5536z" fill="#333333" p-id="5844"></path><path d="M338.5856 709.4784h49.7664c16.384 0 29.7472-13.3632 29.7472-29.7472v-122.368c0-16.384-13.3632-29.7472-29.7472-29.7472h-49.7664c-16.384 0-29.7472 13.3632-29.7472 29.7472v122.368c0 16.4352 13.3632 29.7472 29.7472 29.7472z m0.9728-151.1424h47.8208v120.4224h-47.8208v-120.4224zM493.056 461.1584c-16.384 0-29.7472 13.3632-29.7472 29.7472v188.8768c0 16.384 13.3632 29.7472 29.7472 29.7472h49.7664c16.384 0 29.7472-13.3632 29.7472-29.7472V490.9056c0-16.384-13.3632-29.7472-29.7472-29.7472H493.056z m48.7936 217.6h-47.8208v-186.88h47.8208v186.88zM693.7088 395.9808h-49.7664c-16.384 0-29.7472 13.3632-29.7472 29.7472v254.0032c0 16.384 13.3632 29.7472 29.7472 29.7472h49.7664c16.384 0 29.7472-13.3632 29.7472-29.7472V425.728c0-16.384-13.3632-29.7472-29.7472-29.7472z m-0.9728 282.7776h-47.8208V426.7008h47.8208v252.0576zM741.5808 767.6416H296.6016c-8.4992 0-15.36 6.8608-15.36 15.36s6.8608 15.36 15.36 15.36h444.9792c8.4992 0 15.36-6.8608 15.36-15.36s-6.8608-15.36-15.36-15.36zM324.1984 426.7008h0.3584c202.752-4.7616 318.8736-91.7504 360.1408-129.7408v32.5632c0 8.4992 6.8608 15.36 15.36 15.36s15.36-6.8608 15.36-15.36V254.3616c0-8.4992-6.8608-15.36-15.36-15.36h-77.1072c-8.4992 0-15.36 6.8608-15.36 15.36s6.8608 15.36 15.36 15.36h45.6704c-32.3584 30.72-144.6912 121.5488-344.7808 126.2592a15.34464 15.34464 0 0 0-15.0016 15.7184 15.40096 15.40096 0 0 0 15.36 15.0016z" fill="#333333" p-id="5845"></path><path d="M238.336 355.84c-8.4992 0-15.36-6.8608-15.36-15.36v-56.32c0-35.072 28.5184-63.6416 63.5904-63.6416H377.344c8.4992 0 15.36 6.8608 15.36 15.36s-6.8608 15.36-15.36 15.36H286.6176c-18.1248 0-32.8704 14.7456-32.8704 32.9216v56.32a15.4112 15.4112 0 0 1-15.4112 15.36z" fill="#FFFFFF" p-id="5846"></path><path d="M458.2912 251.2896h-20.0704c-8.4992 0-15.36-6.8608-15.36-15.36s6.8608-15.36 15.36-15.36h20.0704c8.4992 0 15.36 6.8608 15.36 15.36s-6.912 15.36-15.36 15.36z" fill="#FFFFFF" p-id="5847"></path></svg>