<svg t="1712502791124" class="icon" viewBox="0 0 1024 1024" version="1.1" xmlns="http://www.w3.org/2000/svg" p-id="5077" width="200" height="200"><path d="M174.932828 345.983651c78.004028 0 148.001422 46.584054 172.021324 126.286459l26.203531 62.233385C423.381116 514.97216 426.292619 505.873712 541.054377 505.873712c111.607629 0 116.338822 7.642696 165.955693 27.052719l29.721597-71.331833c26.931406-74.485961 94.381234-115.732259 168.62457-115.732259 5.459069 0 10.675512 1.213126 16.013269 1.698377 0-0.363938 0.121313-0.727876 0.121313-0.970502 0-147.152233-111.122379-310.924298-248.326976-310.924298H407.003909c-137.083284 0-248.205663 163.772065-248.205662 310.924298v0.970502c5.459069-0.363938 10.5542-1.577064 16.134581-1.577065z" fill="#59D172" p-id="5078"></path><path d="M904.264424 422.046677c-51.193934 0-94.502547 34.695415-111.486317 83.341784l-56.531691 127.742211c-4.245942-2.790191-1.091814-60.413695-196.16254-60.413695-195.070726 0-194.221538 57.987442-198.588792 60.898945l-53.620188-119.371638c-15.528018-56.895628-66.479327-97.656676-125.801208-91.469731-56.410378 5.823007-101.781306 54.712001-106.876436 115.368321-5.459069 64.053074 33.239664 118.886388 87.102476 134.899657L164.499941 828.565336c5.216444 25.354342 34.088852 41.003673 34.088852 41.003672v92.31892c0 20.016586 15.285393 36.27248 33.846227 36.27248h79.581092c18.560834 0 33.846227-16.255894 33.846227-36.27248v-70.361332h388.564388v70.240019c0 20.016586 15.285393 36.27248 33.846226 36.27248h76.426964c18.560834 0 33.846227-16.255894 33.846227-36.27248v-92.318919s28.993721-17.832958 35.301978-41.367611l22.078901-155.28018c50.344746-14.921455 87.587727-64.053074 87.587726-122.889705 0.121313-70.603957-53.377562-127.863523-119.250325-127.863523z m0 0" fill="#FFC200" p-id="5079"></path><path d="M123.617581 363.695297c81.036844 0 141.086601 32.754413 168.13932 115.974884l34.210165 82.249971c52.285748-20.623149 57.86613-36.029854 176.995142-36.029855 115.853572 0 125.315958 11.524701 176.752518 31.905225l35.544603-88.072977c36.75773-76.912214 89.650041-107.96825 166.804881-107.96825 5.701694 0 11.03945 1.334439 16.619832 1.819689 0-0.363938 0.121313-22.442839 0.121313-22.806776C898.926667 185.729653 783.558346 20.623149 641.137306 20.623149H364.908423C199.801919 20.623149 104.814122 208.657742 104.814122 363.816609c0 0.363938 6.186945-0.121313 5.944319-0.121312 5.823007-0.121313 7.157446-0.121313 12.85914 0z" fill="" p-id="5080"></path><path d="M137.81116 345.983651c78.004028 0 148.001422 46.584054 172.021324 126.286459l26.203531 62.233385c50.466059-19.531335 53.256249-28.508471 168.018007-28.508471 111.607629 0 116.338822 7.642696 165.955692 27.052719l29.721597-71.331833c26.931406-74.485961 94.381234-115.732259 168.624571-115.732259 5.459069 0 10.675512 1.213126 16.013269 1.698377 0-0.363938 0.121313-0.727876 0.121312-0.970501 0-147.152233-111.122379-310.924298-248.326975-310.924298H370.003554c-137.083284 0-248.205663 163.772065-248.205663 310.924298v0.970501c5.459069-0.485251 10.5542-1.698377 16.013269-1.698377z" fill="#7CF799" p-id="5081"></path><path d="M880.365833 398.75465c-52.770999 0-111.243692 28.387158-128.712711 79.702405l-50.587371 118.037199c-4.367255-2.911503-4.731193-43.793863-197.98223-42.944675-193.736287 0.849188-191.431347 41.36761-195.919915 44.400427l-46.947992-104.086246c-16.013269-60.049757-81.036844-98.627177-143.998104-88.19429-57.744817 9.583699-102.266556 51.92181-110.637129 115.489634-8.127947 61.748134 26.688781 145.575169 82.128658 162.437626l25.71828 144.24073c7.885322 37.485606 36.393792 53.498875 36.393792 53.498875l3.518067 87.223788c0 21.108399 15.770643 40.88236 34.93804 40.88236h100.932117c19.167397 0 34.816728-19.77396 34.816728-40.88236v-64.053074h361.147732v63.931762c0 21.108399 15.649331 42.095486 34.93804 42.095486h98.991115c19.167397 0 37.242981-20.987087 37.242981-42.095486v-89.771355s32.390475-24.141215 38.820045-51.315247l24.019902-144.847293c51.92181-15.770643 90.863168-80.551593 90.863168-142.542352-0.242625-74.607274-61.748134-141.207914-129.683213-141.207914z m0 0" fill="" p-id="5082"></path><path d="M869.326383 422.046677c-51.193934 0-94.502547 34.695415-111.486317 83.341784l-56.53169 127.742211c-4.245942-2.790191-1.091814-60.413695-196.16254-60.413695-195.070726 0-194.221538 57.987442-198.588793 60.898945l-53.620187-119.371638c-15.528018-56.895628-66.479327-97.656676-125.801209-91.469731-56.410378 5.823007-101.781306 54.712001-106.876436 115.368321-5.459069 64.053074 33.239664 118.886388 87.102476 134.899657L129.5619 828.565336c5.216444 25.354342 34.088852 41.003673 34.088852 41.003672v92.31892c0 20.016586 15.285393 36.27248 33.846227 36.27248h79.581092c18.560834 0 33.846227-16.255894 33.846227-36.27248v-70.361332h388.564388v70.240019c0 20.016586 15.285393 36.27248 33.846227 36.27248h76.426964c18.560834 0 33.846227-16.255894 33.846226-36.27248v-92.318919s28.993721-17.832958 35.301979-41.367611l22.0789-155.28018c50.344746-14.921455 87.587727-64.053074 87.587727-122.889705 0.121313-70.603957-53.377562-127.863523-119.250326-127.863523z m0 0" fill="#FFFA4A" p-id="5083"></path><path d="M182.211586 312.137424c-9.098448-5.459069-12.131264-17.711646-6.91482-27.174031l55.803814-101.296055c5.216444-9.462386 16.862457-12.737827 25.960906-7.278758 9.098448 5.459069 12.131264 17.711646 6.91482 27.174031l-55.803815 101.296055c-5.337756 9.462386-16.98377 12.737827-25.960905 7.278758z" fill="#FFFFFF" p-id="5084"></path></svg>