<svg t="1712502488310" class="icon" viewBox="0 0 1024 1024" version="1.1" xmlns="http://www.w3.org/2000/svg" p-id="3807" width="200" height="200"><path d="M935.15776 324.864H736.32768c-12.40064 0-23.6032 6.8608-29.89056 17.55136-58.09152 98.82624-92.75392 98.82624-92.75392 98.82624H56.38144v163.08224s57.21088 188.80512 88.33024 238.04928l0.39936 0.03072-0.39936 0.58368h620.41088c11.59168 0 200.64256-324.51584 200.64256-484.0448 0-18.31936-12.288-34.07872-30.60736-34.07872z" fill="#7C7FBD" p-id="3808"></path><path d="M180.6336 173.44512V441.2416h186.8288V267.43808l74.2912-49.18272v-44.81024z" fill="#6AC9CC" p-id="3809"></path><path d="M240.50688 56.41216h70.68672v117.03296h-70.68672z" fill="#FEE36F" p-id="3810"></path><path d="M838.51264 387.74784h-20.70528c-9.05216 0-16.39424 7.34208-16.39424 16.39424v20.70528c0 9.05216 7.34208 16.39424 16.39424 16.39424h20.70528c9.05216 0 16.39424-7.34208 16.39424-16.39424v-20.70528c0-9.05216-7.34208-16.39424-16.39424-16.39424z" fill="#FFFFFF" p-id="3811"></path><path d="M853.28896 694.17984a1834.98752 1834.98752 0 0 0 42.51648-89.856H56.38144s12.4416 41.05216 28.86656 89.856h768.04096z" fill="#FEE36F" p-id="3812"></path><path d="M765.12256 848.15872H144.71168a5.18144 5.18144 0 0 1-5.0688-4.13696c-31.26272-50.8416-85.89312-230.52288-88.2176-238.20288A4.89472 4.89472 0 0 1 51.2 604.32384V441.2416c0-2.85696 2.31424-5.18144 5.18144-5.18144H613.6832c0.19456-0.01024 33.3312-2.77504 88.28928-96.27648 7.29088-12.40064 20.45952-20.10112 34.3552-20.10112h198.84032c20.39808 0 35.77856 16.87552 35.77856 39.24992 0 85.87264-52.46976 212.76672-96.48128 304.09728-29.44 61.0816-55.63392 107.27424-68.62848 129.3824-32.78848 55.74656-37.56032 55.74656-40.71424 55.74656z m-617.14432-10.35264h615.75168c20.16256-18.54464 196.85376-325.15072 196.85376-478.8736 0-16.47616-10.93632-28.89728-25.42592-28.89728H736.32768c-10.24 0-19.98848 5.74464-25.42592 15.0016-57.91744 98.53952-93.36832 101.38624-97.21856 101.38624H61.55264v157.1328c3.88096 12.72832 56.77056 185.10848 86.4256 234.25024z" fill="#136296" p-id="3813"></path><path d="M367.4624 446.42304H180.6336a5.18144 5.18144 0 0 1-5.18144-5.18144V173.44512c0-2.85696 2.31424-5.18144 5.18144-5.18144h261.12c2.85696 0 5.18144 2.31424 5.18144 5.18144v44.81024c0 1.7408-0.8704 3.35872-2.31424 4.32128l-71.97696 47.64672V441.2416a5.19168 5.19168 0 0 1-5.18144 5.18144z m-181.64736-10.35264h176.46592V267.43808c0-1.7408 0.8704-3.35872 2.31424-4.32128l71.97696-47.64672v-36.85376H185.81504v257.45408z" fill="#136296" p-id="3814"></path><path d="M311.20384 178.61632h-70.68672a5.18144 5.18144 0 0 1-5.18144-5.18144V56.41216c0-2.85696 2.31424-5.18144 5.18144-5.18144h70.68672c2.85696 0 5.18144 2.31424 5.18144 5.18144v117.03296a5.18144 5.18144 0 0 1-5.18144 5.1712z m-65.51552-10.35264h60.33408V61.5936h-60.33408v106.67008zM838.51264 446.42304h-20.70528a21.6064 21.6064 0 0 1-21.57568-21.57568v-20.70528c0-11.88864 9.6768-21.56544 21.57568-21.56544h20.70528c11.89888 0 21.57568 9.6768 21.57568 21.56544v20.70528a21.6064 21.6064 0 0 1-21.57568 21.57568z m-20.71552-53.49376c-6.18496 0-11.2128 5.02784-11.2128 11.2128v20.70528c0 6.18496 5.02784 11.22304 11.2128 11.22304h20.70528c6.18496 0 11.2128-5.03808 11.2128-11.22304v-20.70528c0-6.18496-5.02784-11.2128-11.2128-11.2128h-20.70528zM128.9728 556.00128a5.18144 5.18144 0 0 1-5.18144-5.18144v-51.77344a5.18144 5.18144 0 1 1 10.36288 0v51.77344c0 2.8672-2.32448 5.18144-5.18144 5.18144zM201.56416 556.00128a5.18144 5.18144 0 0 1-5.18144-5.18144v-51.77344a5.18144 5.18144 0 1 1 10.36288 0v51.77344c0 2.8672-2.32448 5.18144-5.18144 5.18144zM274.15552 556.00128a5.18144 5.18144 0 0 1-5.18144-5.18144v-51.77344a5.18144 5.18144 0 1 1 10.36288 0v51.77344c0 2.8672-2.32448 5.18144-5.18144 5.18144zM346.74688 556.00128a5.18144 5.18144 0 0 1-5.18144-5.18144v-51.77344a5.18144 5.18144 0 1 1 10.36288 0v51.77344c0 2.8672-2.31424 5.18144-5.18144 5.18144zM419.33824 556.00128a5.18144 5.18144 0 0 1-5.18144-5.18144v-51.77344a5.18144 5.18144 0 1 1 10.36288 0v51.77344c0 2.8672-2.31424 5.18144-5.18144 5.18144zM491.93984 556.00128a5.18144 5.18144 0 0 1-5.18144-5.18144v-51.77344a5.18144 5.18144 0 1 1 10.36288 0v51.77344a5.19168 5.19168 0 0 1-5.18144 5.18144zM564.5312 556.00128a5.18144 5.18144 0 0 1-5.18144-5.18144v-51.77344a5.18144 5.18144 0 1 1 10.36288 0v51.77344c0 2.8672-2.32448 5.18144-5.18144 5.18144zM637.12256 556.00128a5.18144 5.18144 0 0 1-5.18144-5.18144v-51.77344a5.18144 5.18144 0 1 1 10.36288 0v51.77344c0 2.8672-2.32448 5.18144-5.18144 5.18144zM709.71392 556.00128a5.18144 5.18144 0 0 1-5.18144-5.18144v-51.77344a5.18144 5.18144 0 1 1 10.36288 0v51.77344c0 2.8672-2.31424 5.18144-5.18144 5.18144zM782.31552 556.00128a5.18144 5.18144 0 0 1-5.18144-5.18144v-51.77344a5.18144 5.18144 0 1 1 10.36288 0v51.77344a5.19168 5.19168 0 0 1-5.18144 5.18144zM854.90688 556.00128a5.18144 5.18144 0 0 1-5.18144-5.18144v-51.77344a5.18144 5.18144 0 1 1 10.36288 0v51.77344a5.19168 5.19168 0 0 1-5.18144 5.18144z" fill="#136296" p-id="3815"></path><path d="M240.50688 261.77536a5.18144 5.18144 0 0 1-5.18144-5.18144v-40.5504c0-2.85696 2.31424-5.18144 5.18144-5.18144h33.64864a5.18144 5.18144 0 1 1 0 10.36288h-28.4672v35.3792a5.18144 5.18144 0 0 1-5.18144 5.1712z" fill="#FFFFFF" p-id="3816"></path><path d="M967.61856 847.86176H56.38144a5.18144 5.18144 0 1 1 0-10.36288h911.24736a5.18144 5.18144 0 1 1-0.01024 10.36288z" fill="#136296" p-id="3817"></path><path d="M74.496 885.61664h-18.1248a5.18144 5.18144 0 0 1 0.01024-10.36288h18.1248a5.18144 5.18144 0 1 1-0.01024 10.36288zM914.50368 885.61664h-35.00032a5.18144 5.18144 0 1 1 0-10.36288h35.00032a5.18144 5.18144 0 1 1 0 10.36288z m-70.00064 0h-35.00032a5.18144 5.18144 0 1 1 0-10.36288h35.00032a5.18144 5.18144 0 1 1 0 10.36288z m-70.00064 0h-35.00032a5.18144 5.18144 0 1 1 0-10.36288h35.00032a5.18144 5.18144 0 1 1 0 10.36288z m-70.00064 0h-35.00032a5.18144 5.18144 0 1 1 0-10.36288h35.00032a5.18144 5.18144 0 1 1 0 10.36288z m-70.00064 0h-35.00032a5.18144 5.18144 0 1 1 0-10.36288h35.00032a5.18144 5.18144 0 1 1 0 10.36288z m-70.00064 0h-35.00032a5.18144 5.18144 0 1 1 0-10.36288h35.00032a5.18144 5.18144 0 1 1 0 10.36288z m-70.00064 0h-35.00032a5.18144 5.18144 0 1 1 0-10.36288h35.00032a5.18144 5.18144 0 1 1 0 10.36288z m-70.00064 0h-35.00032a5.18144 5.18144 0 1 1 0-10.36288h35.00032a5.18144 5.18144 0 1 1 0 10.36288z m-70.00064 0h-35.00032a5.18144 5.18144 0 1 1 0-10.36288h35.00032a5.18144 5.18144 0 1 1 0 10.36288z m-70.00064 0h-35.00032a5.18144 5.18144 0 1 1 0-10.36288h35.00032a5.18144 5.18144 0 1 1 0 10.36288z m-70.00064 0h-35.00032a5.18144 5.18144 0 1 1 0-10.36288h35.00032a5.18144 5.18144 0 1 1 0 10.36288z m-70.00064 0h-35.00032a5.18144 5.18144 0 1 1 0-10.36288h35.00032a5.18144 5.18144 0 1 1 0 10.36288zM967.61856 885.61664h-18.1248a5.18144 5.18144 0 1 1 0-10.36288h18.1248a5.18144 5.18144 0 1 1 0 10.36288z" fill="#136296" p-id="3818"></path><path d="M82.26816 930.4576H56.38144a5.18144 5.18144 0 1 1 0-10.36288h25.88672a5.18144 5.18144 0 1 1 0 10.36288zM891.17696 930.4576h-50.55488a5.18144 5.18144 0 1 1 0-10.36288h50.55488a5.18144 5.18144 0 1 1 0 10.36288z m-101.10976 0h-50.55488a5.18144 5.18144 0 1 1 0-10.36288h50.55488a5.18144 5.18144 0 1 1 0 10.36288z m-101.12 0h-50.55488a5.18144 5.18144 0 1 1 0-10.36288h50.55488a5.18144 5.18144 0 1 1 0 10.36288z m-101.10976 0h-50.55488a5.18144 5.18144 0 1 1 0-10.36288h50.55488a5.18144 5.18144 0 1 1 0 10.36288z m-101.12 0h-50.55488a5.18144 5.18144 0 1 1 0-10.36288h50.55488a5.18144 5.18144 0 1 1 0 10.36288z m-101.10976 0H335.0528a5.18144 5.18144 0 1 1 0-10.36288h50.55488a5.18144 5.18144 0 1 1 0 10.36288z m-101.12 0h-50.55488a5.18144 5.18144 0 1 1 0-10.36288h50.55488a5.18144 5.18144 0 1 1 0 10.36288z m-101.10976 0h-50.55488a5.18144 5.18144 0 1 1 0-10.36288h50.55488a5.18144 5.18144 0 1 1 0 10.36288zM967.61856 930.4576h-25.88672a5.18144 5.18144 0 1 1 0-10.36288h25.88672a5.18144 5.18144 0 1 1 0 10.36288z" fill="#136296" p-id="3819"></path><path d="M74.496 972.76928h-18.1248a5.18144 5.18144 0 0 1 0.01024-10.36288h18.1248a5.18144 5.18144 0 1 1-0.01024 10.36288zM914.50368 972.76928h-35.00032a5.18144 5.18144 0 1 1 0-10.36288h35.00032a5.18144 5.18144 0 1 1 0 10.36288z m-70.00064 0h-35.00032a5.18144 5.18144 0 1 1 0-10.36288h35.00032a5.18144 5.18144 0 1 1 0 10.36288z m-70.00064 0h-35.00032a5.18144 5.18144 0 1 1 0-10.36288h35.00032a5.18144 5.18144 0 1 1 0 10.36288z m-70.00064 0h-35.00032a5.18144 5.18144 0 1 1 0-10.36288h35.00032a5.18144 5.18144 0 1 1 0 10.36288z m-70.00064 0h-35.00032a5.18144 5.18144 0 1 1 0-10.36288h35.00032a5.18144 5.18144 0 1 1 0 10.36288z m-70.00064 0h-35.00032a5.18144 5.18144 0 1 1 0-10.36288h35.00032a5.18144 5.18144 0 1 1 0 10.36288z m-70.00064 0h-35.00032a5.18144 5.18144 0 1 1 0-10.36288h35.00032a5.18144 5.18144 0 1 1 0 10.36288z m-70.00064 0h-35.00032a5.18144 5.18144 0 1 1 0-10.36288h35.00032a5.18144 5.18144 0 1 1 0 10.36288z m-70.00064 0h-35.00032a5.18144 5.18144 0 1 1 0-10.36288h35.00032a5.18144 5.18144 0 1 1 0 10.36288z m-70.00064 0h-35.00032a5.18144 5.18144 0 1 1 0-10.36288h35.00032a5.18144 5.18144 0 1 1 0 10.36288z m-70.00064 0h-35.00032a5.18144 5.18144 0 1 1 0-10.36288h35.00032a5.18144 5.18144 0 1 1 0 10.36288z m-70.00064 0h-35.00032a5.18144 5.18144 0 1 1 0-10.36288h35.00032a5.18144 5.18144 0 1 1 0 10.36288zM967.61856 972.76928h-18.1248a5.18144 5.18144 0 1 1 0-10.36288h18.1248a5.18144 5.18144 0 1 1 0 10.36288z" fill="#136296" p-id="3820"></path><path d="M853.2992 699.35104H85.248a5.1712 5.1712 0 0 1-4.90496-3.52256 3484.22144 3484.22144 0 0 1-28.91776-89.99936 5.18144 5.18144 0 0 1 4.95616-6.67648h839.43424a5.16096 5.16096 0 0 1 4.73088 7.26016 1833.44128 1833.44128 0 0 1-42.63936 90.10176 5.15072 5.15072 0 0 1-4.608 2.83648zM88.96512 688.9984h761.1392c13.53728-26.85952 26.2144-53.5552 37.75488-79.49312H63.37536a3613.72672 3613.72672 0 0 0 25.58976 79.49312z" fill="#136296" p-id="3821"></path><path d="M131.25632 654.42816h-18.1248a5.18144 5.18144 0 1 1 0-10.36288h18.1248a5.18144 5.18144 0 1 1 0 10.36288zM784.64 654.42816H748.3392a5.18144 5.18144 0 1 1 0-10.36288h36.3008a5.18144 5.18144 0 1 1 0 10.36288z m-72.6016 0H675.7376a5.18144 5.18144 0 1 1 0-10.36288h36.3008a5.18144 5.18144 0 1 1 0 10.36288z m-72.59136 0h-36.3008a5.18144 5.18144 0 1 1 0-10.36288h36.3008a5.18144 5.18144 0 1 1 0 10.36288z m-72.6016 0h-36.3008a5.18144 5.18144 0 1 1 0-10.36288h36.3008a5.18144 5.18144 0 1 1 0 10.36288z m-72.6016 0h-36.3008a5.18144 5.18144 0 1 1 0-10.36288h36.3008a5.18144 5.18144 0 1 1 0 10.36288z m-72.6016 0h-36.3008a5.18144 5.18144 0 1 1 0-10.36288h36.3008a5.18144 5.18144 0 1 1 0 10.36288z m-72.59136 0h-36.3008a5.18144 5.18144 0 1 1 0-10.36288h36.3008a5.18144 5.18144 0 1 1 0 10.36288z m-72.6016 0h-36.3008a5.18144 5.18144 0 1 1 0-10.36288h36.3008a5.18144 5.18144 0 1 1 0 10.36288z m-72.6016 0h-36.3008a5.18144 5.18144 0 1 1 0-10.36288h36.3008a5.18144 5.18144 0 1 1 0 10.36288zM839.0656 654.42816h-18.1248a5.18144 5.18144 0 1 1 0-10.36288h18.1248a5.18144 5.18144 0 1 1 0 10.36288z" fill="#136296" p-id="3822"></path></svg>