<svg t="1712503091805" class="icon" viewBox="0 0 1024 1024" version="1.1" xmlns="http://www.w3.org/2000/svg" p-id="5992" width="200" height="200"><path d="M195.33748153 937.55378466a56.90242509 56.90242509 0 0 1-56.83467182-56.80963259V336.72232574h767.40136683v543.9967871a56.87885874 56.87885874 0 0 1-56.81110548 56.80963258H195.33748153z" fill="#F8D02D" p-id="5993"></path><path d="M515.31401797 741.61873169c-104.43575313 0-156.53948018-58.75385646-170.47750332-113.73562403-8.4544281-33.24917411-0.45659803-54.34253031 3.92968886-56.74187932a47.30355613 47.30355613 0 0 1 16.65846368-3.47309085c10.17035294 0 19.92829476 4.63962516 36.26713984 12.84366078 24.84040585 12.4533431 58.79804337 29.52421791 113.62221094 29.52421792 59.64348618 0 97.99035638-15.08246403 125.98423446-26.02903363 19.88116207-7.76953104 32.81614244-13.13971303 47.30355612-11.17486861 10.83168364 1.46258659 15.72317418 11.51805358 14.5345464 29.93662904-3.74852255 55.96566267-65.99756332 138.84998867-187.84590332 138.8499887z m-6.5588098-233.86951207h28.54179571a44.56249504 44.56249504 0 0 1 42.96292902 33.18142086 240.40622842 240.40622842 0 0 1-64.94591493 8.36458135 161.67989029 161.67989029 0 0 1-49.88701726-7.26727319c4.68381206-19.60720323 22.25841763-34.27872903 43.32820746-34.27872902zM696.55397881 512.66280359c-22.00507936-2.85741995-40.90529211 1.5539062-59.41518716 8.06705621-13.55065127-42.57408427-52.87994371-73.69934109-99.86388122-73.69934109H508.73016893c-45.74964992 0-84.09504723 29.57135063-98.56184038 70.43098291-13.41367186-5.87243985-27.76410614-10.51206502-44.76722771-10.51206501-12.4533431 0-24.9081591 2.42291538-38.09353195 7.40425261-36.51900518 13.80251663-54.2055509 60.44474209-44.03667086 116.06721976 15.65394802 85.53554039 93.46561718 171.89295724 232.04017416 171.89295725 160.60614847 0 243.1487624-116.68289066 248.35987154-195.56830168 3.40386469-51.25681135-22.92122123-88.21032112-67.11843782-94.08276096z" fill="#444444" p-id="5994"></path><path d="M195.33748153 937.55378466a56.90242509 56.90242509 0 0 1-56.83467182-56.80963259V336.74441918h767.40136683v543.99678711a56.87885874 56.87885874 0 0 1-56.81110548 56.81110548H195.33748153z m-19.49379018-661.54868692H138.50280971v-78.15485415c0-24.45156108 15.63185456-45.15607248 37.34088164-53.13180907v131.28666322z m544.84222991-195.61543436v195.66109416h-26.46206531V53.46952716h26.46206531v26.92013622z m87.15867275 0v195.66109416h-26.46206532V53.46952716h26.46206532v26.92013622z m98.05958253 117.52980638v78.15485413h-37.34088164V144.71843452a56.71978587 56.71978587 0 0 1 37.34088164 53.15537542z m-37.34088164-115.7696946v-59.04990874c0-16.77334964-13.57421762-30.39322708-30.39322708-30.39322708h-631.93167651a30.39322708 30.39322708 0 0 0-30.3711336 30.39322708v59.02634239c-55.55472445 9.32343723-98.05958254 57.61088848-98.05958254 115.76969459v682.82468233a117.64321943 117.64321943 0 0 0 117.52980636 117.52833346h653.73202318a117.66678578 117.66678578 0 0 0 117.52980638-117.50624001V197.8959034c0-58.15880612-42.52842445-106.44625737-98.05958255-115.76969459z" fill="#444444" p-id="5995"></path><path d="M236.5844857 276.02719118H633.52872141V53.44890658H236.5830128z" fill="#FFFFFF" p-id="5996"></path></svg>