<svg t="1712502752324" class="icon" viewBox="0 0 1091 1024" version="1.1" xmlns="http://www.w3.org/2000/svg" p-id="4924" width="200" height="200"><path d="M314.071 729.507A318.728 318.728 0 1 0 764.813 278.75a318.728 318.728 0 1 0-450.742 450.758z" fill="#E9EAEB" p-id="4925"></path><path d="M221.075 288.89l-21.7-16.275c77.308-109.86 204.8-176.318 340.429-176.318 130.204 0 250.914 59.677 330.935 162.755l-21.7 16.275C774.441 179.03 661.87 123.423 539.803 123.423c-126.135 0-245.489 61.033-318.729 165.467z m318.729 640.17c-135.63 0-264.477-66.459-341.785-179.03l21.7-14.92c73.24 104.434 192.594 166.824 320.085 166.824 77.309 0 151.905-23.057 215.65-65.102l14.92 23.057c-67.815 44.757-147.836 69.17-230.57 69.17z" fill="#BCC0C4" p-id="4926"></path><path d="M763.592 465.208c0-50.183-97.653-90.872-217.007-90.872s-217.006 40.69-217.006 90.872V646.95c13.563 40.689 109.86 81.377 230.57 81.377s193.949-55.607 203.443-81.377c-1.356-21.7 0-160.042 0-181.743z" fill="#A3D4FF" p-id="4927"></path><path d="M558.792 741.891c-119.354 0-226.5-39.332-242.776-90.871l-1.356-2.713v-183.1c0-58.32 101.721-104.433 230.57-104.433s230.569 46.113 230.569 104.434v184.456l-1.357 2.712c-10.85 29.839-89.515 89.515-215.65 89.515z m-215.65-97.653c12.206 29.839 94.94 70.528 217.006 70.528 109.86 0 177.675-48.827 189.881-70.528v-179.03c0-36.62-84.09-77.309-203.444-77.309s-203.443 40.69-203.443 77.309v179.03z" fill="#2A5082" p-id="4928"></path><path d="M370.268 484.196h27.125v162.755h-27.125z" fill="#2A5082" p-id="4929"></path><path d="M575.068 271.258c-13.563-4.069-28.483-4.069-42.045 0L126.135 387.9v42.045l409.6 126.135c12.207 4.07 24.413 4.07 35.264 0l394.68-124.778v-42.045L575.068 271.258z" fill="#FFFFFF" p-id="4930"></path><path d="M553.367 572.355c-6.782 0-14.92-1.356-21.7-2.713L112.571 440.795v-62.39l417.738-120.71a79.4 79.4 0 0 1 50.183 0l400.106 120.71v62.39l-71.884 24.413-8.138-25.77 54.252-18.988v-23.057L573.711 282.11c-10.85-4.07-23.057-4.07-33.907 0l-398.75 115.284v23.057L541.16 542.517c9.494 2.712 18.988 2.712 28.482 0l271.259-86.803 8.137 25.77-273.97 88.158c-6.782 1.357-13.563 2.713-21.701 2.713z" fill="#2A5082" p-id="4931"></path><path d="M870.74 633.388c-8.139 0-13.564-6.781-13.564-13.563V511.322c0-14.92-9.494-28.482-21.7-31.195l-282.11-82.734c-6.78-2.712-10.85-9.494-9.493-16.275 2.712-6.782 9.494-10.85 16.275-9.494l282.109 82.734c24.413 5.425 40.689 29.838 40.689 58.32v108.503c1.356 6.782-5.425 12.207-12.207 12.207z" fill="#2A5082" p-id="4932"></path><path d="M926.347 782.58l-40.689-135.629h-27.126l-40.688 135.63c-4.07 13.562 12.206 27.125 27.126 27.125h54.251c13.563 0 29.839-13.563 27.126-27.126z" fill="#FFFFFF" p-id="4933"></path><path d="M899.221 823.269H844.97c-12.207 0-25.77-6.782-33.908-17.632-6.781-8.138-8.137-17.632-5.425-27.126l43.401-145.123h46.114l43.402 145.123c2.712 9.494 0 18.988-6.782 27.126-6.781 10.85-20.344 17.632-32.55 17.632z m-31.195-162.755L830.05 786.649c0 1.356 0 2.713 1.357 2.713 2.712 4.068 8.137 6.781 12.206 6.781h54.252c4.069 0 9.494-2.713 12.207-6.781 0-1.357 1.356-2.713 1.356-4.07l-37.976-126.134h-5.426z" fill="#2A5082" p-id="4934"></path><path d="M912.784 619.825c0 23.057-18.988 40.689-40.689 40.689-23.057 0-40.688-17.632-40.688-40.689s18.988-40.689 40.688-40.689 40.69 18.989 40.69 40.69z" fill="#A3D4FF" p-id="4935"></path><path d="M870.74 674.077c-14.92 0-28.483-5.425-37.977-16.276-10.85-10.85-16.276-24.413-16.276-37.976 0-29.838 24.414-54.251 54.252-54.251 14.92 0 28.482 5.425 37.976 16.275 10.85 10.85 16.276 24.413 16.276 37.976 0 29.839-24.414 54.252-54.252 54.252z m1.355-81.378c-14.919 0-27.125 12.207-27.125 27.126 0 6.782 2.712 13.563 8.137 18.988 5.425 5.425 12.207 8.138 18.988 8.138 14.92 0 27.126-12.207 27.126-27.126 0-6.781-2.712-13.563-8.138-18.988-5.425-5.425-12.206-8.138-18.988-8.138z" fill="#2A5082" p-id="4936"></path></svg>