<svg t="1712502913482" class="icon" viewBox="0 0 1024 1024" version="1.1" xmlns="http://www.w3.org/2000/svg" p-id="5374" width="200" height="200"><path d="M512 512m-492.679245 0a492.679245 492.679245 0 1 0 985.35849 0 492.679245 492.679245 0 1 0-985.35849 0Z" fill="#FFC868" p-id="5375"></path><path d="M512 512m-405.735849 0a405.735849 405.735849 0 1 0 811.471698 0 405.735849 405.735849 0 1 0-811.471698 0Z" fill="#FFC868" p-id="5376"></path><path d="M618.264151 450.270189l11.978868-16.712453 24.923773-34.873962 10.916227-15.263397-14.876981-11.399245-2.994717-2.221887-17.968302 25.116981L618.264151 411.628679l-15.939623-13.041509a178.040755 178.040755 0 0 0-56.030188-32.265661v38.64151a178.040755 178.040755 0 0 1 56.030188 32.26566zM351.830943 428.920755a127.22717 127.22717 0 0 0-1.449056 18.354717v0.579622c0 80.664151 60.184151 110.901132 123.459622 127.806793v-38.64151C416.072453 521.660377 361.008302 494.901132 351.830943 428.920755z m319.46868 207.698113a142.104151 142.104151 0 0 0-1.449057-19.320755c-8.404528 56.513208-54.677736 97.569811-122.010566 107.906415v38.64151c74.578113-11.206038 123.459623-60.66717 123.459623-127.22717zM512 154.566038a396.075472 396.075472 0 0 1 396.075472 376.754717v-19.320755a396.075472 396.075472 0 0 0-792.150944 0c0 6.472453 0 12.944906 0.483019 19.320755A396.075472 396.075472 0 0 1 512 154.566038z m473.358491 347.773585a473.358491 473.358491 0 0 1-946.716982 0v9.660377a473.358491 473.358491 0 0 0 946.716982 0v-9.660377zM339.175849 673.811321L328.45283 688.301887l13.717736 11.882264a258.608302 258.608302 0 0 0 130.028679 62.21283v-38.641509a256.096604 256.096604 0 0 1-125.584905-59.024906z m208.664151 110.321509h-75.737358v38.64151h75.737358z" opacity=".1" p-id="5377"></path><path d="M526.876981 485.144151V341.977358a179.586415 179.586415 0 0 1 87.523019 41.732831l24.923774-34.777359a209.92 209.92 0 0 0-110.707925-46.369811v-34.777359h-37.095849v33.618114c-71.293585 3.477736-121.720755 47.529057-121.720755 107.230188v0.579623c0 60.860377 37.675472 92.16 123.459623 112.446792v145.485283c-43.471698-5.216604-77.283019-24.344151-112.446793-55.643773l-26.083018 34.777358a237.838491 237.838491 0 0 0 136.790943 59.701132v57.962265h37.095849V707.139623c72.45283-4.636981 123.459623-46.949434 123.459623-109.54868 0-59.121509-37.095849-92.739623-125.198491-112.446792z m-33.618113-8.114717c-63.758491-16.809057-78.828679-38.641509-78.828679-71.293585 0-35.356981 29.560755-63.178868 78.828679-65.497358z m114.18566 124.039245c0 37.675472-30.72 64.917736-80.567547 67.622642V529.195472c63.758491 16.809057 80.567547 37.095849 80.567547 71.293585z" fill="#FF8F59" p-id="5378"></path><path d="M502.339623 1004.679245h19.320754v-86.943396h-19.320754z m0-898.415094h19.320754V19.320755h-19.320754zM106.264151 502.339623H19.320755v19.320754h86.943396z m811.471698 0v19.320754h86.943396v-19.320754z m-542.623396 483.018868l18.741132 5.023396 22.508679-83.948679-18.741132-5.023397zM607.637736 117.566792l18.741132 5.023397L648.887547 38.641509l-18.741132-5.023396z m-485.047547 280.150944L38.641509 375.112453l-5.023396 18.741132 83.948679 22.508679z m778.819622 228.661132l83.94868 22.508679 5.023396-18.741132-83.948679-22.508679zM257.255849 933.868679l16.809057 9.660378 43.471698-75.350944-16.809057-9.660377z m449.207547-778.046792l16.809057 9.660377 43.471698-75.350943-16.809057-9.660378z m-540.981132 144.90566l-75.350943-43.471698-9.660378 16.809057 75.350944 43.471698z m693.035472 422.544906l75.350943 43.471698 9.660378-16.809057-75.350944-43.471698zM156.787925 853.590943l13.621132 13.621132L231.849057 805.772075 218.227925 792.150943z m710.42415-683.181886l-13.621132-13.621132L792.150943 218.227925 805.772075 231.849057z m-710.42415 0L218.227925 231.849057 231.849057 218.227925l-61.536604-61.44zM792.150943 805.772075l61.536604 61.44 13.621132-13.621132L805.772075 792.150943zM155.821887 706.463396l-75.350944 43.471698 9.660378 16.809057 75.350943-43.471698z m712.356226-388.926792l75.350944-43.471698-9.660378-16.809057-75.350943 43.471698zM257.255849 90.131321l43.471698 75.350943 16.809057-9.660377-43.471698-75.350944z m449.207547 778.046792l43.471698 75.350944 16.809057-9.660378-43.471698-75.350943z m-589.283019-260.830188l-83.562264 22.79849 5.023396 18.741132 83.94868-22.508679z m789.252831-190.985661l83.948679-22.508679-5.023396-18.741132-83.94868 22.508679zM375.112453 38.641509l22.508679 83.94868 18.741132-5.023397-22.508679-83.948679zM607.637736 906.433208l22.508679 83.948679 18.741132-5.023396-22.508679-83.94868z" fill="#171C1F" opacity=".1" p-id="5379"></path><path d="M512 0a512 512 0 1 0 512 512A512 512 0 0 0 512 0z m0 985.358491a473.358491 473.358491 0 1 1 473.358491-473.358491 473.358491 473.358491 0 0 1-473.358491 473.358491z m0-888.754717a415.396226 415.396226 0 1 0 415.396226 415.396226 415.396226 415.396226 0 0 0-415.396226-415.396226z m0 811.471698a396.075472 396.075472 0 1 1 396.075472-396.075472 396.075472 396.075472 0 0 1-396.075472 396.075472zM414.333585 405.735849c0 33.135094 15.070189 54.677736 78.828679 71.486793V340.045283c-48.784906 2.318491-78.828679 30.236981-78.828679 65.690566z m59.507924-43.375094v88.58566c-40.18717-14.973585-40.18717-30.913208-40.187169-45.210566 0-21.25283 15.263396-37.095849 40.187169-43.471698z m52.938868 167.221132V669.464151c49.847547-2.898113 80.567547-30.236981 80.567548-67.622642v-0.966037c0-34.29434-16.809057-54.581132-80.567548-71.390189z m61.246793 71.969811c0 22.508679-15.553208 38.641509-41.926038 45.596981v-91.580377c38.641509 13.717736 41.926038 27.821887 41.926038 45.30717z m-41.926038-131.57434V366.321509a178.040755 178.040755 0 0 1 56.030189 32.265661L618.264151 411.628679l11.978868-16.712453 24.923773-34.873962 10.916227-15.263396-14.876981-11.399245a230.883019 230.883019 0 0 0-103.17283-48.301887v-36.999245h-75.930566v35.453584c-72.549434 10.336604-121.720755 59.797736-121.720755 125.101887v0.579623c0 80.664151 60.184151 110.901132 123.459622 127.806792v107.423397a190.792453 190.792453 0 0 1-80.181132-46.852831l-15.746415-14.200754-12.655094 16.90566-26.083019 34.873962-10.723019 14.490566 13.717736 11.882265a258.608302 258.608302 0 0 0 130.028679 62.21283v60.377358h75.737359v-58.928302c74.578113-11.206038 123.459623-60.66717 123.459622-127.22717-0.096604-82.016604-64.048302-112.253585-125.295094-128z m-17.581887 237.838491v56.899623h-37.095849v-57.962264A237.452075 237.452075 0 0 1 354.632453 647.245283l26.083019-34.777358c34.777358 31.299623 68.975094 50.523774 112.446792 55.740377V521.660377c-85.784151-20.286792-123.459623-51.683019-123.459622-112.64v-0.386415c0-59.89434 50.42717-104.042264 121.720754-107.52v-33.714717h37.095849v34.873963a209.243774 209.243774 0 0 1 110.707925 46.466415l-24.923774 34.873962a179.006792 179.006792 0 0 0-87.523019-41.829434v143.456604c88.102642 19.803774 125.584906 53.518491 125.584906 112.736603-0.386415 62.792453-51.393208 105.201509-123.846038 109.838491z" fill="#171C1F" p-id="5380"></path></svg>