<svg t="1712502456755" class="icon" viewBox="0 0 1024 1024" version="1.1" xmlns="http://www.w3.org/2000/svg" p-id="3658" width="200" height="200"><path d="M368.416 352h143.68l31.904-16.64 31.904 16.64h186.4c14.72 0 28.16 7.84 35.072 20.256l6.72 11.712 16.352 80L896 544h-0.256c35.488 0 63.936 29.312 64.256 65.12v189.76c0 36.16-28.768 65.12-63.936 65.12H127.936C92.448 864 64 834.688 64 798.88v-110.016c0-52.736 34.208-98.976 84.064-113.6L255.488 544H256l55.04-71.872 16.64-88.064 3.68-8.224A40.768 40.768 0 0 1 368.416 352z" fill="#F9C23C" p-id="3659"></path><path d="M804.096 384h-201.024c-15.04 0-27.072 13.12-27.072 29.44v101.12c0 16.32 12.032 29.44 27.072 29.44H896l-91.904-160z m-319.904 160c15.456 0 27.808-13.12 27.808-29.44v-100.736c0-16.384-12.352-29.44-27.808-29.44l-156.544-0.256L256 544h228.192z" fill="#26C9FC" p-id="3660"></path><path d="M960 672h-16.48c-26.432 0-47.52 21.664-47.52 48 0 26.72 21.44 48 47.52 48H960v-96z" fill="#F92F60" p-id="3661"></path><path d="M384 848a112 112 0 1 1-224 0 112 112 0 0 1 224 0z m480 0a112 112 0 1 1-224 0 112 112 0 0 1 224 0z" fill="#212121" p-id="3662"></path><path d="M320 848a48 48 0 1 1-96 0 48 48 0 0 1 96 0z m480 0a48 48 0 1 1-96 0 48 48 0 0 1 96 0z" fill="#D3D3D3" p-id="3663"></path><path d="M448 608h-64v64h64v64h64v-64h64v64h64v-64h64v-64h-64v64h-64v-64h-64v64h-64v-64z" fill="#212121" p-id="3664"></path><path d="M540.064 288h7.872c15.488 0 28.064 12.576 28.064 28.064V352h-64V316.064c0-15.488 12.576-28.064 28.064-28.064zM64 672h42.176c11.936 0 21.824 12.16 21.824 26.752v42.496c0 14.624-9.6 26.752-21.824 26.752H64v-96z" fill="#D3D3D3" p-id="3665"></path><path d="M320 528a48 48 0 0 1 48-48h12.96c1.664 0 3.04 1.376 3.04 3.04v89.92a3.04 3.04 0 0 1-3.04 3.04H368a48 48 0 0 1-48-48z" fill="#FCD53F" p-id="3666"></path></svg>