<svg t="1712508413604" class="icon" viewBox="0 0 1063 1024" version="1.1" xmlns="http://www.w3.org/2000/svg" p-id="1857" width="200" height="200"><path d="M724.185412 161.333845m-67.970043 0a67.970043 67.970043 0 1 0 135.940086 0 67.970043 67.970043 0 1 0-135.940086 0Z" fill="#FFDEA1" p-id="1858"></path><path d="M724.185412 250.653946c-49.250313 0-89.320101-40.069788-89.320101-89.320101s40.069788-89.320101 89.320101-89.320101 89.320101 40.069788 89.320101 89.320101-40.069788 89.320101-89.320101 89.320101z m0-135.940087c-25.709739 0-46.619986 20.914516-46.619986 46.619986s20.910246 46.619986 46.619986 46.619986 46.619986-20.914516 46.619986-46.619986-20.914516-46.619986-46.619986-46.619986z" fill="#6E6E96" p-id="1859"></path><path d="M26.14528 967.823729s-112.484913-91.920538 214.99508-261.529665c177.675179-92.023018 343.159475-16.144914 496.760329 17.080046 182.893133 39.587277 375.603022 205.349123 291.594816 255.786499" fill="#DEF7FF" p-id="1860"></path><path d="M1020.566911 981.257185c-98.112054-120.457025-280.326256-201.378013-488.920588-201.378013-208.607142 0-390.838423 80.946608-488.946208 201.420713l977.866796-0.0427z" fill="#FFDEA1" p-id="1861"></path><path d="M42.700115 1002.649942a21.345788 21.345788 0 1 1-16.554835-34.834753c105.127683-129.090988 298.823945-209.290344 505.501043-209.290345 206.664287 0 400.352009 80.178006 505.475422 209.247644a21.345788 21.345788 0 0 1-16.554834 34.834754L42.700115 1002.649942z m488.946208-201.420712c-174.5111 0-338.389872 59.903991-440.366287 158.720597l880.702684-0.0427c-101.972145-98.773906-265.850917-158.677898-440.336397-158.677897z" fill="#6E6E96" p-id="1862"></path><path d="M91.301386 981.299885s793.133288-26.175171 608.997582-118.035928c-40.505329-20.197154-106.331827-58.776708-168.652645-61.735827-57.269394-2.711457 244.560639-76.710757 488.920588 179.733325l-929.265525 0.03843z" fill="#DBBA7B" opacity=".41" p-id="1863"></path><path d="M518.823478 870.680967m-23.485063 0a23.485063 23.485063 0 1 0 46.970127 0 23.485063 23.485063 0 1 0-46.970127 0Z" fill="#DBBF8A" p-id="1864"></path><path d="M322.402949 883.491001m-10.675029 0a10.675029 10.675029 0 1 0 21.350058 0 10.675029 10.675029 0 1 0-21.350058 0Z" fill="#DBBF8A" p-id="1865"></path><path d="M591.768085 847.725385s-39.232866-435.097093 195.058396-669.379814c0 0-181.091188 329.640618-43.092956 669.379814" fill="#FFDEA1" p-id="1866"></path><path d="M743.742065 869.079712a21.358598 21.358598 0 0 1-19.791504-13.318165c-73.363068-180.617217-57.491435-357.886745-31.252214-474.79966a985.527196 985.527196 0 0 1 14.321619-56.022551c-118.509899 227.326873-94.303204 517.354594-93.987224 520.868814a21.350058 21.350058 0 0 1-19.343152 23.181892c-11.716912 1.084583-22.12293-7.59635-23.181892-19.343152-0.414191-4.539022-9.808216-112.830784 9.791136-251.734258 18.228679-129.189198 66.232149-309.469084 191.433156-434.657282a21.350058 21.350058 0 1 1 33.805681 25.376678c-0.435541 0.798492-44.54476 82.180642-71.467182 203.004888-24.655046 110.631728-39.561657 278.17417 29.445999 448.060847a21.350058 21.350058 0 0 1-19.774423 29.381949z" fill="#6E6E96" p-id="1867"></path><path d="M770.062416 164.416793s-207.88124-58.106317-282.832753 164.203293c0 0 43.857288-313.423115 221.972279-279.805314 0-0.01281 90.443114 18.4678 60.860474 115.602021z" fill="#A2DBA8" p-id="1868"></path><path d="M487.242473 349.974413a21.350058 21.350058 0 0 1-21.157907-24.313445c1.716545-12.276283 44.066519-300.719831 216.950745-300.719831 9.816756 0 19.953764 0.973563 30.129201 2.895068l-0.03416 0.16226c11.729722 2.280186 44.254399 12.455624 65.625807 41.303822 13.770787 18.58736 26.982203 51.252948 11.729722 101.335913a21.345788 21.345788 0 0 1-26.170901 14.342969c-0.1708-0.04697-22.481611-6.059146-53.964405-6.059147-68.482445 0-159.275699 27.157273-202.893867 156.521542a21.350058 21.350058 0 0 1-20.214235 14.530849z m195.792838-282.333161c-55.317999 0-101.310293 42.977666-136.695878 127.754475 55.63825-49.318633 120.841326-59.17809 164.011142-59.17809 17.285007 0 32.247127 1.541474 43.490067 3.236669 2.139276-15.820393 0-29.300819-6.409287-40.223509-13.010725-22.18698-40.411389-29.006188-42.478075-29.492969a120.068454 120.068454 0 0 0-21.917969-2.096576z" fill="#6E6E96" p-id="1869"></path><path d="M680.575784 847.725385s-56.133571-425.967808 106.250697-669.384084c0 0-149.198472 332.019015-43.092956 669.384084h-63.157741z" fill="#6E6E96" opacity=".2" p-id="1870"></path><path d="M804.909979 226.831551m-67.970043 0a67.970043 67.970043 0 1 0 135.940087 0 67.970043 67.970043 0 1 0-135.940087 0Z" fill="#FFDEA1" p-id="1871"></path><path d="M804.909979 316.151652c-49.250313 0-89.320101-40.069788-89.3201-89.320101s40.069788-89.320101 89.3201-89.3201 89.320101 40.069788 89.320101 89.3201-40.069788 89.320101-89.320101 89.320101z m0-135.940086c-25.709739 0-46.619986 20.914516-46.619985 46.619985s20.910246 46.619986 46.619985 46.619986 46.619986-20.914516 46.619986-46.619986-20.914516-46.619986-46.619986-46.619985z" fill="#6E6E96" p-id="1872"></path><path d="M699.632846 757.555552s-0.08967 30.411022-38.677765 30.411022 39.202976 4.585992 43.280837 36.892899l-4.603072-67.303921z" fill="#F0CC87" p-id="1873"></path><path d="M467.62604 847.042183s5.785866-380.368355-199.388187-585.546678c0 0 156.500192 241.725352 26.602172 586.21707" fill="#FFDEA1" p-id="1874"></path><path d="M294.835755 869.066902a21.350058 21.350058 0 0 1-19.970844-28.882357c124.654446-330.580021-23.040982-564.755992-24.548296-567.083149a21.350058 21.350058 0 0 1 33.019999-26.700382c109.760646 109.764916 159.813721 267.567461 182.470401 380.616016 24.368956 121.580038 23.228863 216.374293 23.169083 220.349674a21.350058 21.350058 0 0 1-21.341518 21.021267h-0.32452a21.350058 21.350058 0 0 1-21.029807-21.661769c0.0427-2.967658 2.002635-239.778226-97.249512-434.981802 0.704552 2.989008 1.392024 6.007906 2.070955 9.069504 21.508048 97.253782 32.669858 251.571998-36.282287 434.435241a21.367138 21.367138 0 0 1-19.983654 13.817757z" fill="#6E6E96" p-id="1875"></path><path d="M268.233583 261.495505s-176.462496 67.799243-112.958884 263.203509c0 0-132.968158-243.181425 9.765516-312.650242 0.00427 0 73.222157-34.266842 103.193368 49.446733z" fill="#A2DBA8" p-id="1876"></path><path d="M155.283239 546.053342a21.354328 21.354328 0 0 1-18.745351-11.11484c-3.458709-6.323887-84.354077-156.192751-50.685037-261.755976 11.610161-36.397578 35.108035-63.426751 69.840309-80.327456l0.392841-0.187881c1.972745-0.909512 19.945224-8.911514 42.841025-8.911514 23.959035 0 67.432022 9.163445 89.405501 70.54486a21.350058 21.350058 0 0 1-12.442813 27.127384c-6.345237 2.480877-155.599219 63.04245-100.874752 234.927493a21.350058 21.350058 0 0 1-19.731723 29.69793z m18.79659-314.657148c-23.971845 11.751072-39.514687 29.65096-47.520958 54.707387-9.816756 30.718463-7.113839 67.602822 0.606342 102.680967 20.628426-76.689407 81.125949-119.427952 113.095525-137.2339-9.979017-16.853735-23.613164-25.094858-41.329442-25.094858-12.916785-0.00427-23.549113 4.381032-24.851467 4.940404z" fill="#6E6E96" p-id="1877"></path><path d="M268.284823 260.274282s182.056211-50.894267 247.703368 143.801177c0 0-38.413024-274.48488-194.405084-245.05169 0 0-79.200173 16.187614-53.298284 101.250513z" fill="#A2DBA8" p-id="1878"></path><path d="M515.975381 425.429787a21.354328 21.354328 0 0 1-20.218505-14.530849C458.056945 299.097226 379.689423 275.629243 320.583924 275.629243c-27.165813 0-46.419295 5.175254-46.611446 5.226494-11.13619 3.040248-22.746351-3.304989-26.11112-14.360049-9.889347-32.477708-7.882441-60.749454 5.969476-84.025286 21.025537-35.330075 61.752906-44.011009 63.477991-44.36542a146.243624 146.243624 0 0 1 27.187164-2.638867c148.22918 0 188.311778 237.019799 192.334128 263.587811a21.375678 21.375678 0 0 1-20.854736 26.375861zM320.583924 232.924858c36.137107 0 89.683052 7.784231 137.054559 45.441462-23.297183-52.10268-59.3617-100.20009-113.142494-100.20009-6.007906 0-12.272013 0.597802-18.621521 1.776325-1.977015 0.473971-24.770337 6.285457-35.500875 24.620886-4.927593 8.424733-6.785048 18.753891-5.563825 30.838023a260.223041 260.223041 0 0 1 35.774156-2.476606z" fill="#6E6E96" p-id="1879"></path><path d="M419.434691 755.369306c-23.506413 0-27.170083-27.161543-27.170084-27.161543l-0.03416 1.327973a1162.754024 1162.754024 0 0 0-4.180341-93.978683l0.17934 1.537204c-1.686655-26.09404 9.060964-43.314997 16.042434-51.013827-9.705736 2.634597-23.203243-11.755342-23.203243-11.755342l0.234851 2.066686c-30.317082-212.198222-113.069905-314.896269-113.069905-314.896269 130.585492 180.587327 29.5314 578.244959 29.5314 578.244958h90.319283c0.879622-11.01663 1.558554-21.815489 2.152086-32.507597l-0.02135 0.858272c2.135006-31.649325 52.726102-52.721832 29.219689-52.721832z m-15.167081-169.297416c1.409104-0.388571 2.737077-1.123013 3.93268-2.318617 3.81312-3.81312 0.794222-2.899338-3.93268 2.318617z" fill="#6E6E96" opacity=".2" p-id="1880"></path><path d="M786.826481 178.337031s201.493303 77.411039 128.975697 300.54049c0 0 151.841609-277.670308-11.15754-356.990042-0.00427-0.00427-83.611095-39.138925-117.818157 56.449552z" fill="#A2DBA8" p-id="1881"></path><path d="M915.793638 500.231848a21.350058 21.350058 0 0 1-20.295364-27.951495c65.203076-200.617951-108.936534-271.128651-116.379164-274.027989a21.405568 21.405568 0 0 1-12.395843-27.106033c24.462896-68.341534 72.662786-78.546862 99.217987-78.546861 11.00382 0 22.22968 1.609794 33.3616 4.786682 4.632962 1.323704 9.974747 2.848098 14.654679 5.354595l0.02562-0.05551c38.895535 18.928961 65.207346 49.186263 78.200991 89.930712 38.050073 119.312662-53.725285 289.32317-57.653695 296.501059a21.341518 21.341518 0 0 1-18.736811 11.11484z m-101.083982-332.270945c20.098944 10.700649 51.84648 30.867913 79.870565 62.918619 21.943589 25.090588 43.716378 60.121762 53.255584 106.139676 11.08922-44.156189 16.221774-92.129768 3.64659-131.482194-9.415375-29.471619-27.699565-50.514236-55.907261-64.319183-1.349324-0.584992-14.082498-5.918236-29.63388-5.918236-22.30654 0-39.190166 10.721999-51.231598 32.661318z" fill="#6E6E96" p-id="1882"></path></svg>